<?xml version="1.0" standalone="no"?>
<!DOCTYPE svg PUBLIC "-//W3C//DTD SVG 20010904//EN"
 "http://www.w3.org/TR/2001/REC-SVG-20010904/DTD/svg10.dtd">
<svg version="1.0" xmlns="http://www.w3.org/2000/svg"
 width="5000.000000pt" height="5000.000000pt" viewBox="0 0 5000.000000 5000.000000"
 preserveAspectRatio="xMidYMid meet">

<g transform="translate(0.000000,5000.000000) scale(0.100000,-0.100000)"
fill="#000000" stroke="none">
<path d="M0 25000 l0 -25000 25000 0 25000 0 0 25000 0 25000 -25000 0 -25000
0 0 -25000z m26090 21511 c574 -25 1121 -61 1615 -107 3407 -316 6717 -1212
9815 -2657 580 -270 1261 -617 1420 -722 295 -196 507 -439 660 -756 254 -530
251 -1137 -8 -1654 -24 -49 -86 -162 -137 -250 -51 -88 -204 -353 -340 -590
-136 -236 -513 -891 -838 -1455 -325 -564 -683 -1186 -796 -1382 -237 -412
-294 -496 -433 -643 -170 -179 -323 -292 -543 -401 -461 -229 -989 -257 -1475
-81 -52 19 -257 115 -455 214 -1431 714 -2830 1234 -4350 1618 -692 175 -1115
260 -2073 419 -29 4 -31 6 93 -89 730 -565 1218 -1384 1425 -2392 17 -79 36
-127 113 -282 190 -379 249 -612 263 -1029 8 -220 -10 -649 -32 -776 -19 -109
-55 -227 -101 -326 -29 -64 -33 -82 -28 -120 17 -116 46 -190 197 -499 87
-179 165 -344 173 -368 8 -24 27 -101 42 -171 23 -111 27 -150 27 -307 0 -156
-4 -196 -26 -300 -41 -187 -119 -383 -212 -530 -18 -27 -35 -54 -38 -60 -4 -6
39 -11 120 -12 200 -4 389 -41 624 -122 178 -62 335 -134 761 -349 429 -216
585 -283 782 -332 244 -61 502 -165 845 -342 269 -139 359 -191 449 -258 259
-195 550 -617 896 -1297 47 -93 109 -199 140 -237 30 -38 73 -104 97 -146 l43
-77 96 91 c52 50 126 115 165 145 l69 54 1 286 c0 243 4 308 23 431 60 394
186 784 350 1080 185 336 383 603 613 826 661 642 1511 978 2402 951 359 -11
662 -69 1001 -192 691 -250 1281 -760 1653 -1430 349 -626 464 -1408 317
-2155 -159 -809 -614 -1525 -1288 -2026 -78 -59 -95 -75 -80 -81 272 -98 529
-259 758 -476 17 -16 78 -48 136 -71 604 -243 978 -678 1248 -1452 45 -129 47
-132 125 -215 303 -324 488 -705 566 -1169 28 -161 38 -495 21 -676 -68 -722
-371 -1399 -848 -1894 -70 -73 -170 -168 -223 -212 -95 -80 -308 -227 -386
-266 -39 -20 -41 -23 -58 -102 -40 -187 -141 -425 -253 -595 -616 -936 -1889
-1133 -2764 -427 -94 76 -235 223 -312 324 -43 58 -126 188 -162 255 -1 2 -35
-9 -76 -23 -341 -117 -658 -161 -964 -134 -643 56 -1270 254 -2055 651 -509
257 -680 362 -843 521 -52 51 -61 56 -115 62 -199 23 -458 95 -719 203 -10 4
-13 -73 -13 -363 0 -384 -9 -488 -55 -689 -49 -212 -170 -495 -284 -665 l-50
-75 -1 -1553 0 -1553 31 -46 c132 -191 250 -546 266 -801 6 -97 6 -97 58 -172
101 -144 194 -333 246 -498 20 -64 25 -71 43 -66 85 27 736 330 1131 527 198
99 403 195 455 214 486 176 1014 148 1475 -81 353 -175 621 -429 825 -782 31
-55 468 -812 970 -1684 502 -872 988 -1715 1080 -1875 92 -159 188 -330 213
-380 259 -518 261 -1124 7 -1654 -153 -317 -365 -560 -660 -756 -159 -105
-840 -452 -1420 -722 -3430 -1599 -7122 -2527 -10900 -2738 -595 -33 -865 -39
-1620 -39 -755 0 -1025 6 -1620 39 -3777 211 -7470 1139 -10900 2738 -580 270
-1261 617 -1420 722 -295 196 -507 439 -660 756 -254 530 -251 1136 8 1654 24
50 132 241 238 425 106 184 618 1072 1136 1973 519 901 973 1679 1008 1730 74
104 231 272 336 358 229 187 528 331 809 389 350 73 702 48 1035 -73 52 -19
257 -115 455 -214 394 -196 1046 -500 1130 -527 18 -5 24 6 58 106 48 142 130
306 216 434 l68 101 6 96 c17 251 112 547 251 777 l46 75 0 1548 0 1549 -51
76 c-204 308 -339 751 -339 1111 0 66 -3 121 -6 121 -3 0 -85 -30 -182 -66
-401 -149 -359 -127 -614 -310 -515 -369 -824 -554 -1154 -693 -232 -97 -494
-173 -719 -207 -198 -31 -722 -19 -1000 22 -368 54 -741 190 -1074 390 l-55
33 -59 -91 c-157 -243 -339 -426 -577 -581 -537 -348 -1240 -389 -1825 -107
-505 244 -867 688 -1005 1234 -27 107 -29 110 -66 129 -64 33 -233 145 -324
215 -132 102 -392 368 -500 514 -332 446 -532 932 -617 1503 -25 173 -25 613
0 775 39 247 103 460 197 658 94 196 190 343 323 495 69 77 70 80 128 253 137
405 309 721 533 977 184 210 433 378 741 502 70 28 102 48 145 89 180 174 436
337 666 424 55 20 100 40 102 45 1 4 -43 42 -100 85 -279 211 -561 508 -747
786 -364 543 -549 1120 -568 1766 -25 855 263 1618 847 2251 428 463 1012 787
1655 918 357 72 771 80 1135 20 719 -118 1399 -481 1899 -1015 181 -193 416
-536 548 -798 234 -466 350 -986 341 -1527 l-3 -196 80 -63 c103 -81 282 -261
369 -370 38 -47 102 -136 144 -198 41 -62 78 -109 82 -105 4 4 34 40 65 78 62
74 139 152 218 221 45 39 49 48 77 148 82 292 174 514 302 726 87 145 166 247
282 368 273 282 597 443 1056 526 116 21 312 46 363 46 34 0 68 15 182 80 152
88 309 166 535 267 352 158 364 164 395 202 147 180 354 342 570 446 193 93
349 132 557 142 l136 6 -84 80 c-265 250 -433 545 -505 887 -29 139 -32 408
-6 545 36 185 57 238 236 610 170 350 180 376 200 479 l21 109 -34 86 c-77
192 -93 311 -103 751 -8 388 12 581 89 855 43 156 79 245 149 370 56 101 64
122 90 250 216 1067 737 1929 1520 2512 64 48 116 89 114 91 -4 4 -213 -28
-490 -74 -1282 -214 -2522 -540 -3765 -989 -786 -284 -1503 -593 -2295 -988
-459 -229 -593 -278 -852 -312 -516 -68 -1042 83 -1448 415 -101 83 -262 255
-336 360 -35 49 -488 826 -1007 1727 -518 901 -1030 1789 -1136 1973 -218 377
-268 473 -320 612 -255 683 -73 1488 453 1997 169 164 284 241 631 422 2048
1068 4412 1947 6710 2494 2070 493 4029 747 6230 809 230 6 1502 -3 1740 -13z"/>
<path d="M24205 45669 c-4229 -118 -8351 -1159 -12130 -3064 -452 -228 -520
-265 -607 -332 -180 -137 -315 -342 -374 -568 -23 -87 -27 -120 -27 -255 0
-136 3 -167 26 -255 15 -55 44 -136 65 -180 43 -89 2252 -3928 2310 -4015 146
-217 387 -376 652 -430 87 -18 128 -21 240 -17 214 7 241 16 740 262 239 117
525 255 635 305 2347 1077 4829 1731 7395 1950 667 57 1113 74 1870 74 636 0
880 -7 1400 -39 2715 -172 5376 -843 7865 -1985 110 -50 396 -188 635 -305
499 -246 526 -255 740 -262 112 -4 153 -1 240 17 265 54 506 213 652 430 58
87 2267 3926 2310 4015 21 44 50 125 65 180 23 88 26 119 26 255 0 135 -4 168
-27 255 -73 277 -246 503 -496 650 -97 57 -872 446 -1125 565 -1364 641 -2652
1135 -4065 1559 -2891 867 -5980 1275 -9015 1190z m1630 -559 c2642 -86 5175
-518 7680 -1310 1504 -476 3020 -1101 4385 -1808 219 -113 275 -147 327 -195
139 -130 189 -335 124 -508 -12 -31 -297 -535 -634 -1120 -337 -585 -844
-1466 -1127 -1958 -325 -564 -532 -912 -560 -944 -92 -103 -213 -157 -352
-157 -46 0 -101 5 -123 11 -22 6 -195 89 -385 183 -999 497 -1921 880 -2960
1226 -3302 1103 -6793 1435 -10225 974 -1803 -242 -3562 -697 -5275 -1364
-616 -239 -1165 -483 -1820 -807 -217 -108 -415 -202 -439 -209 -24 -8 -82
-14 -128 -14 -140 0 -261 54 -353 157 -53 59 -2281 3921 -2318 4017 -68 177
-20 381 121 513 52 48 108 82 327 195 296 153 676 340 1000 490 3448 1605
7208 2502 11010 2627 364 12 1371 12 1725 1z"/>
<path d="M24060 44729 c-3638 -127 -7244 -972 -10535 -2467 -585 -265 -1472
-708 -1506 -750 -15 -20 -20 -38 -17 -67 3 -31 238 -447 1107 -1955 606 -1053
1114 -1932 1127 -1952 16 -25 36 -41 61 -48 38 -12 44 -9 418 177 996 494
1901 868 2950 1218 1952 652 3944 1038 5995 1160 517 31 850 37 1545 32 667
-5 771 -9 1290 -42 2494 -161 5002 -744 7340 -1708 510 -210 912 -393 1450
-660 374 -186 380 -189 418 -177 25 7 45 23 61 48 13 20 521 899 1127 1952
868 1507 1104 1924 1107 1955 3 29 -2 47 -17 67 -21 26 -717 383 -1101 563
-3473 1634 -7144 2521 -10985 2655 -331 11 -1498 11 -1835 -1z"/>
<path d="M24650 38059 c-1708 -96 -2875 -881 -3341 -2248 -58 -170 -128 -451
-160 -636 l-21 -130 -85 -145 c-88 -152 -116 -225 -155 -402 -22 -96 -23 -124
-22 -433 1 -201 6 -359 13 -404 14 -91 49 -157 113 -217 l48 -45 -20 -152
c-21 -165 -58 -374 -90 -513 -16 -69 -57 -161 -196 -448 -97 -198 -182 -383
-189 -409 -47 -169 -15 -365 86 -533 85 -141 230 -276 379 -354 73 -38 570
-247 678 -285 44 -16 65 -34 128 -105 89 -99 211 -211 306 -278 37 -26 67 -50
68 -54 1 -20 -674 -602 -790 -681 -21 -15 -53 -17 -220 -17 -107 0 -330 7
-495 15 -517 25 -580 21 -725 -46 -126 -59 -284 -203 -368 -336 -33 -53 -105
-92 -497 -268 -331 -149 -452 -209 -650 -322 -214 -123 -258 -139 -414 -147
-250 -12 -523 -68 -669 -137 -306 -142 -496 -427 -648 -968 -63 -225 -129
-331 -304 -487 -119 -106 -171 -170 -218 -265 -30 -62 -47 -83 -96 -119 -146
-109 -215 -259 -202 -440 5 -72 2 -101 -18 -180 -13 -52 -34 -120 -45 -151
l-22 -57 -142 -7 c-235 -11 -338 -34 -425 -95 -29 -21 -44 -26 -47 -18 -2 7
-59 213 -125 458 -67 245 -139 490 -161 545 -79 203 -197 382 -359 545 -125
125 -228 199 -453 327 -107 60 -167 100 -164 108 14 34 58 233 74 330 25 154
25 523 0 685 -23 148 -69 336 -114 464 -109 313 -346 692 -577 922 -631 627
-1514 874 -2342 655 -634 -168 -1164 -611 -1455 -1216 -95 -197 -156 -396
-196 -640 -25 -154 -25 -542 0 -705 42 -269 111 -489 232 -735 245 -499 643
-892 1160 -1145 181 -89 288 -129 459 -171 205 -50 327 -63 571 -63 254 1 410
20 634 79 310 82 580 223 833 434 l96 81 174 -98 c195 -109 267 -171 310 -262
22 -46 199 -668 202 -708 1 -9 -25 -20 -70 -32 -38 -10 -188 -64 -332 -119
-143 -56 -266 -101 -272 -101 -6 0 -50 20 -98 44 -425 213 -852 289 -1213 216
-107 -22 -276 -83 -341 -123 -36 -23 -40 -23 -115 -11 -107 18 -289 17 -402
-1 -246 -40 -474 -163 -648 -348 l-68 -74 -70 -7 c-279 -28 -567 -179 -752
-393 -32 -38 -65 -78 -73 -89 -9 -13 -37 -26 -70 -34 -175 -41 -391 -142 -512
-239 -94 -75 -206 -213 -282 -347 -97 -170 -206 -454 -271 -707 l-28 -108 -63
-50 c-207 -165 -357 -427 -424 -744 -27 -129 -38 -424 -21 -575 80 -697 471
-1342 996 -1644 142 -82 266 -124 474 -163 21 -4 23 -8 17 -41 -33 -188 -27
-348 20 -508 101 -351 375 -616 732 -709 344 -91 724 14 978 269 194 195 304
451 304 710 0 63 3 73 23 85 95 61 258 157 336 199 l95 51 126 -122 c156 -151
257 -233 430 -349 303 -202 625 -322 938 -348 67 -5 177 -15 245 -20 260 -22
422 -8 654 56 376 103 667 263 1298 714 151 108 302 208 342 227 39 18 178 73
310 121 322 120 448 174 546 236 107 67 376 289 785 646 49 43 87 69 92 64 5
-5 40 -68 78 -141 l68 -132 -32 -98 c-64 -189 -65 -214 -61 -900 3 -536 5
-627 20 -688 58 -241 160 -439 311 -603 l56 -60 0 -1852 0 -1852 -46 -52 c-88
-97 -164 -224 -205 -343 -39 -113 -51 -195 -56 -398 l-6 -200 -77 -80 c-94
-99 -149 -180 -205 -299 -86 -183 -88 -200 -93 -709 -3 -416 -5 -448 -20 -442
-9 4 -88 33 -174 66 -658 246 -1299 526 -2068 904 -499 246 -526 255 -740 262
-160 6 -292 -17 -426 -72 -187 -78 -358 -215 -466 -375 -58 -87 -2267 -3926
-2310 -4015 -21 -44 -50 -125 -65 -180 -23 -88 -26 -119 -26 -255 0 -135 4
-168 27 -255 74 -281 250 -508 506 -655 226 -129 1060 -538 1565 -768 3683
-1673 7757 -2552 11835 -2552 4492 0 8911 1051 12915 3070 455 230 534 273
617 336 180 139 315 343 374 569 23 87 27 120 27 255 0 136 -3 167 -26 255
-15 55 -44 136 -65 180 -43 89 -2252 3928 -2310 4015 -146 217 -387 376 -652
430 -87 18 -128 21 -240 17 -214 -7 -241 -16 -740 -262 -769 -378 -1410 -658
-2068 -904 -86 -33 -165 -62 -174 -66 -17 -7 -18 16 -18 403 0 440 -6 507 -53
647 -52 152 -129 276 -249 401 l-78 81 0 139 c-1 363 -65 565 -247 780 l-63
73 0 1852 0 1851 56 60 c151 164 253 362 311 603 24 101 32 1257 9 1386 l-14
84 117 240 c120 245 224 439 242 450 5 4 57 -29 115 -72 58 -43 156 -115 217
-161 403 -298 724 -434 1127 -477 253 -26 295 -44 398 -168 116 -139 185 -194
359 -290 824 -456 1441 -683 2043 -753 179 -20 305 -15 465 21 277 62 546 186
775 355 l83 62 42 -20 c34 -16 209 -120 293 -173 19 -12 22 -22 22 -85 0 -262
121 -538 317 -724 352 -335 882 -382 1284 -114 255 170 415 439 449 757 11 99
6 194 -16 319 -6 33 -4 37 17 42 159 30 208 43 294 77 604 235 1090 954 1176
1739 16 147 6 438 -20 561 -69 339 -247 630 -482 790 -49 33 -60 46 -69 82
-146 563 -350 941 -605 1122 -109 77 -299 161 -453 201 -68 17 -76 22 -111 69
-64 84 -181 193 -273 255 -161 108 -318 168 -501 192 l-92 11 -80 81 c-190
192 -389 297 -649 342 -97 17 -352 15 -428 -4 -33 -9 -45 -6 -113 30 -392 205
-896 178 -1459 -78 l-147 -67 -250 97 c-138 54 -281 104 -318 113 -36 9 -67
17 -69 19 -10 7 184 686 210 735 47 89 106 138 301 249 l177 100 98 -81 c260
-216 539 -360 848 -438 848 -213 1672 9 2312 623 394 379 647 875 728 1431 25
166 25 515 0 675 -65 428 -213 769 -479 1102 -295 372 -699 639 -1153 763
-234 64 -351 79 -619 80 -306 0 -469 -25 -737 -111 -464 -150 -909 -457 -1177
-814 -256 -340 -390 -612 -474 -960 -52 -215 -62 -307 -62 -575 1 -268 14
-383 69 -592 l24 -93 -137 -76 c-75 -42 -158 -90 -186 -107 -302 -186 -540
-472 -664 -797 -16 -42 -46 -139 -66 -215 -21 -77 -40 -143 -44 -147 -3 -4
-35 11 -71 34 -88 54 -213 112 -297 138 l-70 21 -11 74 c-30 193 -138 366
-321 515 l-80 65 -31 100 c-46 144 -91 225 -165 293 -52 49 -65 68 -89 132
-32 87 -189 396 -301 590 -153 267 -308 486 -403 571 -85 76 -577 325 -815
413 -53 20 -151 50 -218 67 -266 66 -426 134 -994 419 -531 267 -680 325 -901
350 -199 22 -332 -15 -885 -245 -213 -89 -254 -103 -272 -94 -12 6 -60 50
-107 98 -164 167 -441 352 -847 566 l-112 60 104 98 c58 54 136 138 175 186
l69 87 123 49 c317 125 544 227 625 281 185 123 316 298 369 496 22 78 24 252
5 327 -7 29 -89 209 -181 400 -162 333 -170 351 -199 481 -35 161 -64 322 -86
482 l-16 117 74 73 c126 124 139 188 141 673 1 275 -2 345 -17 422 -28 154
-107 342 -243 584 -48 84 -56 109 -74 210 -131 726 -431 1330 -883 1781 -219
217 -476 397 -782 548 -365 180 -693 282 -1159 360 -409 68 -936 95 -1386 69z
m-757 -664 c-810 -235 -1385 -667 -1768 -1330 -87 -150 -139 -266 -238 -526
-30 -79 -38 -91 -119 -168 l-87 -83 25 91 c175 639 522 1165 1009 1532 138
104 254 173 440 264 237 116 427 180 695 236 198 41 216 34 43 -16z m2212
-705 c154 -12 334 -38 468 -70 101 -23 311 -90 304 -96 -2 -2 -73 7 -158 21
-320 51 -585 75 -850 75 -252 0 -396 -28 -554 -107 -82 -41 -119 -67 -197
-142 -32 -30 -58 -50 -58 -45 1 17 105 134 160 179 109 89 279 161 436 184 85
12 286 13 449 1z m-2010 -39 l60 -7 -75 -7 c-711 -75 -1262 -228 -1589 -444
-111 -73 -283 -245 -335 -336 -21 -37 -41 -66 -43 -63 -8 8 75 162 121 223
262 347 820 580 1531 636 73 6 269 5 330 -2z m350 -235 c111 -34 205 -82 273
-142 57 -50 64 -64 29 -64 -12 0 -61 -11 -108 -24 l-87 -23 -45 28 c-26 16
-74 39 -109 51 -60 22 -77 23 -338 23 -292 0 -411 -10 -640 -51 -266 -49 -578
-141 -710 -210 -186 -97 -290 -231 -355 -459 -40 -138 -55 -246 -55 -384 0
-142 12 -182 70 -239 61 -61 127 -84 348 -122 204 -34 459 -60 598 -60 365 0
658 121 877 363 153 169 326 407 394 540 18 37 33 52 66 66 61 26 204 61 250
61 l40 0 -7 -40 c-11 -68 -35 -130 -113 -282 -104 -204 -248 -421 -367 -553
-31 -35 -29 -29 20 50 60 96 155 288 197 395 50 129 122 390 96 350 -5 -8 -46
-75 -92 -148 -175 -284 -426 -590 -575 -701 -143 -108 -355 -195 -547 -227
-125 -20 -232 -16 -620 25 -455 49 -531 67 -624 155 l-54 51 7 -40 c17 -87 71
-160 170 -224 117 -77 270 -128 586 -196 131 -29 87 -27 -145 6 -211 30 -381
67 -458 99 -152 64 -264 189 -308 345 -10 35 -14 106 -14 238 1 170 -5 218
-19 170 -2 -10 -10 -91 -17 -180 -7 -90 -14 -161 -16 -159 -2 2 -8 54 -13 117
-17 200 -18 200 -44 188 -21 -10 -24 -20 -35 -152 -6 -78 -15 -164 -18 -192
l-7 -50 -7 55 c-4 30 -11 100 -15 155 -8 117 -12 129 -37 110 -15 -11 -21 -43
-34 -191 -9 -99 -19 -182 -23 -187 -3 -4 -12 61 -19 145 -7 84 -15 155 -17
157 -3 3 -13 -4 -23 -15 -15 -15 -21 -53 -35 -204 -9 -102 -16 -194 -16 -204
0 -11 -2 -17 -5 -15 -2 3 -11 76 -19 163 -9 88 -17 161 -20 163 -2 2 -12 -7
-23 -20 -16 -21 -21 -55 -32 -203 -21 -301 -24 -312 -37 -144 -7 80 -13 162
-13 183 -1 45 -13 41 -40 -11 -15 -30 -21 -81 -32 -267 -15 -251 -22 -255 -37
-15 l-8 135 -27 -80 c-31 -93 -26 -48 10 75 33 116 120 291 192 387 115 152
305 312 463 389 47 23 58 33 64 58 14 67 78 254 106 311 58 116 174 253 278
330 194 144 698 298 1140 349 196 23 213 24 465 21 218 -2 235 -3 320 -29z
m1752 23 c405 -33 864 -145 1139 -279 258 -125 420 -327 505 -629 32 -115 35
-120 69 -136 157 -74 391 -281 492 -435 99 -150 175 -330 192 -450 l6 -45 -13
40 c-30 90 -34 85 -41 -51 -12 -226 -21 -218 -35 31 -12 215 -15 233 -38 273
-14 24 -26 42 -28 40 -2 -2 -9 -84 -16 -183 -15 -206 -19 -197 -40 98 -10 159
-16 193 -32 213 -11 14 -21 23 -23 21 -3 -2 -11 -75 -20 -163 -8 -87 -16 -159
-18 -161 -3 -3 -20 173 -33 334 -5 70 -9 85 -28 97 l-22 15 -13 -155 c-7 -85
-16 -154 -20 -154 -3 0 -14 84 -23 186 -14 154 -20 189 -34 200 -25 18 -29 1
-44 -181 -15 -173 -19 -163 -39 86 -12 136 -16 158 -33 168 -10 7 -21 10 -23
8 -3 -2 -11 -75 -19 -162 -8 -87 -16 -160 -18 -161 -2 -2 -9 72 -17 164 -7 92
-17 176 -21 187 -6 12 -7 -1 -3 -35 11 -93 8 -302 -6 -360 -17 -75 -61 -166
-106 -218 -20 -24 -38 -41 -40 -39 -2 2 9 35 24 73 16 38 35 94 43 124 15 60
18 213 5 245 -7 16 -11 10 -22 -32 -47 -181 -180 -298 -399 -353 -201 -50
-652 -95 -879 -87 -227 7 -339 43 -565 181 -51 31 -96 55 -98 52 -11 -11 208
-217 280 -264 167 -109 317 -143 692 -158 l190 -8 -105 -12 c-348 -40 -646 4
-905 134 -122 61 -193 111 -288 201 -286 272 -619 796 -661 1038 -7 39 -1 43
51 36 l41 -5 12 -62 c23 -121 117 -299 219 -416 25 -29 20 -16 -28 80 -67 130
-97 220 -107 317 -9 89 12 82 41 -13 22 -72 91 -210 127 -254 16 -20 18 -21
12 -5 -43 117 -78 295 -58 295 19 0 34 -18 75 -90 148 -262 414 -582 570 -686
291 -193 598 -234 1159 -153 365 52 461 90 519 204 24 47 26 58 25 190 -2 201
-49 411 -128 560 -40 77 -131 173 -217 231 -157 104 -581 227 -969 280 -66 9
-227 18 -381 21 -305 6 -370 -2 -488 -64 l-66 -35 -122 28 -123 28 23 24 c34
37 145 107 217 137 114 48 215 64 417 64 100 1 240 -4 310 -10z m88 -259 c353
-30 786 -141 990 -254 44 -25 99 -69 150 -120 98 -99 143 -186 187 -354 27
-104 31 -136 34 -287 2 -147 1 -159 -7 -85 -20 188 -86 424 -152 540 -38 68
-154 184 -228 227 -173 103 -684 241 -1059 287 -108 13 -331 32 -440 38 -26 1
-22 3 20 8 88 11 375 11 505 0z m-2160 -41 c-27 -5 -129 -18 -225 -29 -322
-39 -613 -101 -884 -191 -350 -115 -470 -227 -583 -544 -30 -86 -41 -107 -37
-75 20 145 60 274 115 366 48 80 170 191 265 241 184 97 577 201 874 232 114
11 544 12 475 0z m1160 -18 c44 -12 107 -35 140 -51 l60 -30 -55 6 c-30 3 -91
10 -135 15 -102 11 -409 11 -540 -1 -55 -5 -131 -11 -170 -15 l-70 -6 55 27
c60 28 170 59 265 74 102 16 358 5 450 -19z m-1436 -203 c-19 -36 -152 -211
-274 -358 -61 -74 -192 -236 -291 -359 -98 -123 -189 -235 -202 -250 l-23 -26
7 25 c12 46 83 201 135 293 180 319 390 557 590 667 65 36 73 37 58 8z m2552
-76 c-59 -83 -448 -489 -458 -478 -10 10 54 127 107 197 68 91 213 226 291
272 76 44 87 46 60 9z m-3287 -74 c-93 -143 -443 -622 -450 -615 -6 6 32 111
66 182 48 100 142 235 228 326 77 83 171 164 179 155 3 -2 -8 -24 -23 -48z
m3947 -27 c-23 -43 -124 -154 -402 -446 -305 -319 -339 -354 -339 -339 0 5 25
55 55 112 138 263 341 503 523 619 53 34 164 85 170 78 2 -2 -1 -13 -7 -24z
m-3187 -73 c-116 -152 -403 -483 -411 -474 -10 10 95 172 168 260 83 99 277
291 286 283 3 -3 -17 -34 -43 -69z m3310 -150 c-46 -81 -306 -388 -379 -448
-17 -14 -17 -14 0 20 61 119 204 296 316 389 62 52 76 60 63 39z m-5480 -1538
c24 -91 66 -169 110 -205 32 -26 47 -30 109 -33 81 -4 156 17 363 103 62 25
152 54 200 65 87 19 294 39 283 27 -3 -4 -73 -30 -155 -58 -292 -99 -475 -207
-645 -379 -178 -180 -338 -443 -500 -825 -38 -88 -68 -155 -69 -150 0 6 14 64
30 130 31 124 55 286 90 605 18 160 26 325 43 840 4 111 15 143 86 258 l26 42
6 -177 c4 -119 12 -200 23 -243z m3936 0 c438 -25 1073 -90 1290 -131 423 -82
809 -330 1090 -699 93 -123 147 -216 275 -475 181 -368 301 -541 550 -791 100
-101 138 -144 102 -116 -94 74 -316 309 -408 432 -106 141 -184 270 -279 460
-142 284 -265 464 -429 628 -219 221 -493 385 -762 457 -393 105 -1466 185
-2294 171 -600 -10 -1238 -56 -1680 -122 -374 -56 -696 -226 -987 -520 -175
-178 -264 -304 -428 -609 -117 -216 -169 -300 -290 -471 -84 -118 -347 -454
-356 -454 -2 0 47 69 110 153 232 312 374 538 498 790 138 280 267 466 453
653 300 302 625 472 1006 528 432 63 973 109 1544 130 158 6 803 -3 995 -14z
m205 -214 c431 -33 906 -90 1070 -128 245 -57 498 -180 687 -336 121 -99 113
-84 183 -359 90 -356 120 -620 96 -838 -15 -135 -34 -202 -92 -320 -57 -118
-139 -220 -252 -312 -43 -35 -73 -63 -67 -63 22 0 158 68 216 108 79 53 165
140 216 218 43 65 58 68 58 13 0 -15 14 -73 30 -130 38 -129 55 -295 40 -376
-24 -133 -118 -280 -277 -434 -169 -164 -306 -241 -458 -260 -104 -13 -419 -6
-480 11 -81 22 -353 50 -481 50 -72 0 -171 -7 -220 -15 -214 -36 -385 -179
-409 -340 l-6 -40 25 45 c32 60 124 145 183 171 71 31 167 49 261 49 l84 0
-50 -56 c-61 -68 -105 -149 -126 -230 -21 -82 -20 -110 3 -54 43 110 141 216
253 275 61 32 75 36 114 30 24 -3 44 -8 44 -10 0 -3 -18 -28 -40 -57 -68 -90
-119 -246 -135 -420 l-7 -67 -36 19 c-67 36 -154 20 -202 -36 -23 -26 -31 -29
-88 -29 -58 0 -63 2 -69 24 -3 12 -4 102 -1 200 l5 176 -28 -86 c-15 -47 -38
-137 -52 -200 l-23 -114 -48 -7 c-26 -3 -54 -12 -62 -19 -8 -6 -17 -10 -19 -7
-3 3 -8 56 -12 119 -7 126 -7 126 -48 -53 l-27 -116 -34 14 c-43 18 -98 18
-134 -1 -16 -8 -31 -12 -33 -7 -3 4 -13 73 -23 155 -10 81 -21 147 -24 147 -4
0 -14 -64 -24 -142 -23 -188 -20 -179 -57 -166 -47 16 -123 5 -162 -25 l-34
-26 -24 274 c-12 151 -24 273 -26 272 -1 -2 -12 -125 -24 -274 l-22 -271 -40
29 c-31 23 -51 29 -89 29 -27 0 -58 -5 -70 -11 -11 -6 -22 -9 -24 -6 -3 2 -14
77 -26 166 -12 90 -25 154 -29 144 -3 -10 -14 -81 -24 -158 -10 -77 -19 -141
-20 -143 -2 -2 -17 4 -34 12 -38 20 -97 20 -135 1 -36 -19 -37 -19 -67 101
-13 52 -27 94 -31 94 -4 0 -8 -30 -8 -67 0 -87 -7 -99 -46 -78 -16 8 -44 15
-61 15 -26 0 -34 5 -38 23 -3 12 -14 65 -25 118 -11 52 -33 135 -48 183 l-27
89 3 -204 4 -204 -69 0 c-62 0 -70 2 -92 28 -49 58 -121 72 -196 38 l-41 -18
-12 111 c-18 171 -61 304 -128 392 l-23 32 54 7 c44 5 61 2 97 -16 98 -50 189
-149 235 -257 l24 -57 -5 42 c-10 69 -45 151 -101 234 -60 87 -59 89 29 89 67
0 156 -23 220 -58 80 -42 178 -146 220 -233 39 -81 43 -77 21 24 -37 177 -179
332 -354 388 -93 30 -299 28 -646 -5 -307 -30 -525 -33 -642 -11 -272 52 -648
402 -702 655 -21 100 2 307 54 474 l27 86 28 -42 c72 -114 191 -223 303 -280
64 -32 138 -60 143 -55 2 2 -30 31 -72 66 -142 118 -245 276 -301 458 -23 79
-27 108 -30 283 -6 240 10 372 72 613 98 382 113 443 119 469 5 20 30 43 98
88 166 111 344 191 532 240 214 55 826 121 1426 154 185 10 1218 -3 1415 -18z
m-3682 -692 l-26 -77 -13 33 c-13 31 -12 34 22 76 20 24 38 44 40 44 1 0 -9
-34 -23 -76z m-103 -183 l20 -69 -25 -103 c-14 -57 -28 -126 -31 -152 -4 -27
-10 -45 -15 -40 -4 4 -23 62 -42 129 -23 83 -31 128 -25 143 10 27 87 161 93
161 2 0 13 -31 25 -69z m5949 -89 c16 -31 40 -85 54 -119 24 -60 25 -63 10
-122 -9 -33 -19 -59 -23 -56 -4 2 -10 26 -14 52 -3 26 -20 100 -36 165 -17 65
-30 122 -30 128 0 21 11 8 39 -48z m-4636 -2497 c42 -116 75 -271 88 -415 12
-132 9 -263 -16 -630 -8 -118 -16 -314 -18 -435 -2 -210 -1 -222 20 -261 20
-38 55 -74 97 -99 11 -7 24 -49 41 -139 13 -71 26 -131 28 -133 3 -2 8 13 11
34 14 75 12 73 54 55 43 -18 50 -34 110 -247 l37 -130 3 94 c3 91 3 93 25 87
12 -3 36 -6 53 -6 l31 0 39 -147 c42 -159 50 -161 53 -14 1 66 3 72 19 65 9
-4 38 -9 64 -12 57 -5 54 0 107 -222 l38 -165 8 143 7 142 28 0 c16 0 41 5 56
10 15 6 29 8 32 6 2 -3 22 -87 44 -188 21 -100 41 -184 43 -186 1 -2 6 60 10
138 5 90 12 143 19 145 6 2 27 6 47 9 21 4 53 18 73 31 20 13 36 21 36 17 2
-37 68 -403 72 -396 3 5 11 82 18 172 7 89 15 162 16 162 2 0 18 -9 36 -20 42
-26 94 -25 137 1 18 11 35 18 37 16 2 -2 14 -92 26 -200 12 -108 23 -196 24
-194 1 1 12 81 23 177 12 96 24 185 26 197 l5 23 33 -20 c38 -24 91 -26 131
-5 15 8 31 13 35 10 4 -2 14 -77 21 -165 7 -89 16 -158 20 -153 3 4 19 87 34
183 15 96 30 185 33 197 l5 22 38 -25 c21 -14 57 -28 79 -31 47 -6 45 -1 58
-183 l8 -115 39 182 c21 100 43 187 47 194 6 10 13 10 34 1 14 -7 39 -12 55
-12 l30 0 1 -77 c1 -43 4 -105 8 -137 l6 -59 34 149 c19 82 41 165 48 186 13
33 18 36 61 40 26 3 55 8 65 12 16 7 17 -1 17 -100 0 -66 4 -103 9 -94 5 8 25
76 45 150 20 74 38 135 39 136 1 1 26 4 55 7 l52 6 0 -87 c1 -102 8 -95 40 38
13 52 33 116 46 142 13 26 24 54 24 63 0 8 12 21 28 27 15 7 34 18 43 26 15
12 18 7 31 -50 l14 -63 28 143 c26 131 32 146 58 165 15 11 37 39 48 62 28 58
42 181 29 247 -6 29 -13 139 -15 243 -2 105 -8 262 -14 350 -28 434 -1 675
102 922 23 56 34 73 47 69 9 -2 31 -8 50 -11 l34 -7 -6 -177 -6 -176 27 55
c15 30 51 106 80 168 44 95 56 112 75 112 l23 0 -17 -116 c-30 -198 -49 -420
-54 -639 l-5 -210 30 169 c16 92 48 241 70 331 42 173 125 442 142 463 6 6 24
12 40 12 25 0 29 -3 23 -17 -19 -47 -100 -390 -139 -592 -83 -418 -117 -701
-115 -961 0 -96 -2 -188 -6 -205 -32 -138 -92 -284 -138 -334 -12 -13 -41 -36
-64 -52 -22 -16 -63 -58 -89 -94 -26 -35 -49 -63 -50 -62 -2 2 8 39 22 82 41
128 135 457 132 461 -2 1 -25 -48 -52 -109 -138 -314 -415 -872 -479 -967 -45
-67 -154 -176 -222 -225 -124 -88 -305 -159 -488 -191 -113 -20 -307 -14 -441
14 -81 17 -94 17 -135 4 -76 -24 -357 -28 -482 -7 -142 23 -257 58 -359 108
-68 34 -103 60 -176 132 -74 74 -107 118 -184 244 -81 134 -381 720 -480 939
-18 40 -34 71 -36 69 -1 -1 26 -99 62 -217 35 -118 71 -237 79 -265 l15 -50
-23 30 c-68 92 -121 151 -159 178 -73 52 -109 90 -138 148 -52 101 -64 168
-60 319 7 246 4 483 -9 605 -25 243 -87 570 -167 887 -18 75 -34 140 -34 143
0 4 15 5 33 3 32 -3 32 -4 79 -143 60 -180 111 -373 159 -605 l39 -185 -5 175
c-7 222 -21 406 -46 590 -10 80 -19 148 -19 153 0 4 11 7 24 7 21 0 30 -17 92
-182 l69 -183 6 150 c4 83 7 167 8 187 1 39 13 48 60 45 21 -2 29 -13 54 -82z
m-11593 -115 c313 -27 611 -134 886 -316 566 -376 885 -1025 833 -1694 -5 -74
-16 -164 -24 -200 -12 -62 -13 -58 -8 90 9 263 -22 497 -98 725 -152 459 -495
867 -919 1093 -609 325 -1372 291 -1945 -87 -131 -87 -125 -83 -125 -77 0 7
169 138 235 183 75 51 232 129 351 176 232 91 534 131 814 107z m26756 0 c225
-18 349 -45 525 -115 198 -79 377 -186 535 -324 48 -41 37 -35 -96 52 -123 81
-183 113 -319 166 -233 93 -412 130 -666 138 -217 6 -350 -8 -541 -57 -547
-141 -996 -517 -1250 -1045 -135 -280 -191 -564 -182 -920 4 -166 4 -175 -8
-115 -7 36 -18 128 -25 206 -41 465 110 943 418 1324 258 319 683 578 1082
660 178 36 336 45 527 30z m-26847 -200 c285 -30 575 -130 798 -275 213 -139
426 -348 555 -545 145 -221 235 -434 285 -669 24 -112 27 -149 27 -336 1 -133
-4 -238 -12 -285 -18 -100 -67 -286 -89 -338 l-18 -42 -72 41 c-40 22 -73 44
-73 49 0 5 12 44 26 86 86 258 96 516 29 786 -56 224 -168 471 -293 648 -120
169 -325 357 -512 467 l-45 27 39 -52 c230 -314 -229 -551 -714 -368 -113 42
-188 87 -261 157 -164 158 -141 337 55 430 l61 29 -52 0 c-85 0 -272 -37 -383
-75 -367 -128 -661 -385 -833 -730 -212 -427 -205 -957 18 -1405 58 -114 145
-246 237 -355 89 -105 165 -180 153 -150 -4 11 -10 63 -13 116 -5 116 17 216
76 343 66 140 189 305 313 420 l60 56 -13 38 c-20 58 -17 245 6 312 84 248
302 410 552 410 156 0 296 -60 412 -176 l73 -73 62 12 c100 18 455 14 562 -6
150 -28 146 -26 191 -100 106 -171 136 -405 87 -680 -8 -48 -19 -89 -24 -92
-4 -3 -217 112 -472 255 l-464 261 -2 54 c-5 166 -131 323 -300 375 -201 63
-410 -29 -506 -223 -104 -211 -15 -462 202 -568 66 -33 71 -34 193 -35 l126 0
505 -283 c277 -156 508 -287 513 -291 14 -14 -83 -136 -191 -241 -110 -107
-164 -148 -273 -209 -92 -51 -57 -43 66 15 139 65 238 136 367 266 66 66 120
119 122 119 2 0 35 -18 74 -41 l71 -41 -49 -56 c-165 -189 -428 -365 -690
-462 -306 -112 -706 -123 -1027 -26 -533 160 -948 506 -1173 977 -122 255
-179 475 -188 724 -11 316 46 595 177 854 261 520 726 833 1345 905 65 7 215
5 304 -4z m27096 -20 c473 -92 866 -355 1103 -735 269 -434 334 -968 176
-1456 -98 -305 -244 -550 -448 -754 -557 -555 -1370 -714 -2023 -394 -176 86
-334 198 -462 326 -131 131 -129 116 -16 178 l55 29 37 -44 c113 -138 270
-260 428 -336 133 -63 187 -80 89 -27 -105 57 -198 127 -289 217 -86 86 -188
213 -182 229 1 5 232 138 512 296 l510 286 125 0 c121 0 127 1 191 32 170 83
270 272 241 451 -32 194 -194 345 -385 359 -135 10 -259 -38 -347 -134 -63
-69 -96 -139 -112 -238 l-14 -80 -458 -257 c-252 -142 -462 -258 -466 -258
-20 0 -44 189 -44 340 0 207 34 334 122 463 29 42 35 45 109 60 144 31 262 40
428 33 88 -3 183 -10 212 -15 l52 -10 78 78 c127 125 264 178 438 168 157 -9
274 -65 387 -185 63 -68 114 -157 139 -242 16 -57 16 -232 0 -287 l-12 -43 89
-88 c164 -165 279 -344 333 -522 24 -79 32 -237 16 -310 -8 -34 -6 -33 64 40
245 258 406 555 464 861 99 525 -45 1020 -399 1375 -250 249 -581 402 -911
420 l-90 5 59 -25 c113 -48 184 -147 174 -240 -19 -164 -215 -321 -485 -388
-126 -32 -329 -32 -428 -1 -234 74 -299 242 -162 417 29 37 30 38 6 26 -48
-25 -175 -113 -240 -166 -178 -145 -359 -379 -451 -583 -193 -429 -228 -782
-111 -1145 19 -59 31 -112 26 -116 -4 -4 -38 -24 -75 -44 l-66 -37 -22 58
c-115 307 -132 705 -45 1050 48 189 166 433 304 628 75 107 281 312 417 413
119 90 326 200 475 251 103 35 284 77 394 90 124 15 362 6 490 -19z m-16106
-192 c17 -89 28 -164 24 -168 -4 -4 -46 -36 -93 -70 -135 -101 -462 -362 -620
-496 -227 -191 -306 -280 -437 -499 -135 -224 -171 -313 -448 -1090 -242 -680
-266 -755 -262 -799 4 -41 11 -55 40 -82 19 -18 52 -36 72 -40 20 -3 336 3
702 15 366 12 667 20 669 18 2 -2 -139 -16 -314 -31 -174 -15 -463 -41 -642
-57 -179 -16 -350 -29 -380 -29 -99 0 -190 60 -228 150 -25 61 -11 145 71 405
41 132 123 398 182 590 59 193 174 570 256 838 82 269 149 492 149 497 0 4
-69 8 -152 8 -175 0 -873 19 -963 27 -82 7 -111 -12 -182 -122 -32 -49 -78
-108 -103 -132 -89 -87 -270 -190 -575 -326 -248 -111 -481 -226 -641 -317
-344 -196 -463 -239 -699 -253 -125 -7 -247 -21 -320 -37 l-50 -11 87 -23
c231 -62 486 -201 680 -371 266 -233 419 -506 477 -852 32 -189 26 -219 -14
-66 -80 312 -191 512 -395 715 -217 217 -447 350 -727 421 -126 32 -282 55
-305 46 -9 -3 -36 -47 -61 -99 -43 -90 -59 -134 -147 -418 -98 -315 -229 -518
-464 -719 -73 -64 -90 -84 -121 -149 -28 -59 -54 -94 -118 -157 l-83 -82 -12
-111 c-10 -93 -30 -185 -68 -319 -6 -21 -3 -21 62 11 190 93 356 130 579 129
179 0 263 -17 371 -71 59 -30 154 -106 154 -123 0 -5 -26 4 -57 20 -109 54
-187 73 -331 78 -152 6 -245 -5 -374 -48 -166 -54 -349 -164 -485 -293 l-77
-73 179 -6 c103 -4 238 -16 315 -28 119 -19 172 -21 445 -20 404 3 605 -17
905 -90 515 -124 951 -355 1440 -765 58 -48 202 -171 320 -274 345 -299 508
-423 733 -554 84 -50 257 -136 272 -136 3 0 5 78 5 174 0 147 3 184 21 242 30
101 91 196 180 284 l79 77 -60 84 c-61 87 -214 258 -222 249 -3 -3 0 -77 5
-165 18 -273 -14 -598 -75 -763 -11 -31 -23 -60 -27 -64 -3 -4 -6 113 -7 260
-2 628 -110 961 -452 1389 -45 57 -82 105 -82 108 0 7 197 -115 310 -193 345
-236 574 -500 680 -785 12 -31 23 -57 25 -57 2 0 32 16 67 36 280 159 681 262
1210 312 l77 7 -82 61 c-360 268 -825 634 -870 683 -78 86 -69 209 20 292 44
41 232 153 1098 650 153 88 266 160 292 185 106 106 41 220 -138 243 l-64 8
85 2 c71 1 94 -3 130 -21 114 -58 128 -184 31 -291 -82 -91 -606 -438 -1179
-781 -233 -140 -233 -142 -22 -311 142 -114 585 -483 753 -627 l99 -85 226 -6
c559 -16 1013 -107 1361 -273 62 -30 115 -54 118 -54 2 0 2 8 -1 18 -2 9 -61
238 -131 507 -222 860 -425 1589 -580 2084 -42 133 -75 245 -72 247 5 5 154
-303 216 -448 259 -607 542 -1579 686 -2358 l27 -145 88 -92 c83 -87 124 -150
167 -262 8 -22 11 -20 31 35 59 163 222 325 440 437 l91 47 11 58 c96 482 244
1017 405 1460 73 199 194 496 201 490 3 -4 -48 -251 -91 -438 -14 -63 -103
-425 -196 -803 -94 -379 -169 -690 -166 -693 3 -3 49 8 103 25 470 145 1038
191 1674 135 l65 -5 55 82 c101 152 357 515 531 756 235 323 239 330 239 367
0 46 -26 66 -170 129 -180 79 -539 250 -650 310 -164 88 -380 225 -380 241 0
2 44 -17 98 -44 109 -53 225 -100 722 -290 190 -73 363 -142 385 -152 124 -62
175 -191 119 -300 -26 -51 -454 -645 -691 -961 -57 -75 -106 -143 -109 -150
-3 -9 17 -17 73 -26 322 -54 669 -180 873 -317 91 -61 214 -183 258 -256 64
-108 76 -156 80 -336 3 -150 5 -163 24 -173 11 -6 36 -26 57 -44 l36 -33 115
52 c291 131 520 292 955 671 400 348 594 500 813 637 345 216 701 355 1125
438 49 10 68 21 125 72 145 129 364 254 561 318 113 37 253 62 318 58 l48 -3
-90 -34 c-182 -68 -494 -243 -614 -343 l-27 -23 336 0 c257 0 369 -5 480 -18
387 -47 755 -124 1168 -243 192 -55 584 -183 596 -194 9 -9 -20 -137 -35 -153
-4 -5 -103 23 -220 61 -595 196 -1092 310 -1584 364 -183 20 -707 17 -865 -5
-359 -50 -645 -135 -945 -282 -280 -137 -549 -324 -895 -621 -102 -88 -253
-218 -336 -290 -394 -339 -718 -537 -1076 -660 l-68 -23 0 35 c0 38 -19 83
-46 105 -9 7 -40 16 -68 19 l-51 5 -5 220 -5 220 -31 66 c-138 292 -650 512
-1354 583 -651 66 -1347 -19 -1803 -219 -124 -55 -280 -159 -345 -230 -28 -31
-68 -90 -89 -132 l-38 -77 -3 -283 -3 -283 -155 0 -154 0 0 258 c0 141 -5 277
-11 301 -47 204 -266 382 -623 507 -212 74 -466 127 -768 160 -210 24 -655 24
-868 0 -729 -79 -1225 -292 -1364 -585 l-31 -66 -3 -299 -3 -298 -31 6 c-58
12 -262 97 -398 167 -261 135 -460 281 -899 663 -139 120 -301 257 -360 305
-538 431 -1010 641 -1631 728 -158 22 -682 25 -865 5 -499 -54 -1047 -182
-1640 -382 -82 -27 -152 -47 -156 -42 -4 4 -16 40 -27 80 -18 67 -18 74 -3 80
9 3 112 98 229 211 118 113 221 209 230 213 9 4 76 7 148 7 373 2 485 45 565
216 102 219 166 438 176 605 l6 112 52 38 c75 56 132 126 157 195 19 54 37 76
177 215 108 107 174 182 215 244 100 151 128 221 241 591 20 66 61 171 92 233
90 184 174 256 348 295 122 28 196 37 361 47 245 15 370 58 672 234 165 96
255 140 552 272 259 114 455 211 543 267 82 53 125 94 180 176 65 97 135 167
178 179 22 5 154 4 364 -5 182 -7 458 -15 615 -16 398 -3 387 -6 672 222 265
213 468 388 681 589 54 50 102 92 106 92 5 0 23 -73 40 -162z m1208 10 c34
-38 35 -45 11 -120 -16 -54 -22 -98 -23 -170 0 -87 -2 -98 -18 -98 -31 0 -65
44 -73 95 -16 111 12 271 53 303 23 16 26 16 50 -10z m2325 11 c31 -17 50 -76
55 -180 7 -117 -1 -164 -32 -195 -45 -45 -52 -34 -57 84 -4 69 -13 128 -26
167 -21 62 -19 78 16 118 18 20 18 20 44 6z m-2114 -82 c8 -9 7 -25 -5 -57
-12 -32 -18 -87 -20 -185 -3 -146 -7 -155 -45 -117 -26 26 -38 107 -28 188 10
75 22 111 53 157 21 30 30 33 45 14z m1901 -14 c33 -40 55 -129 55 -218 1 -87
-13 -123 -55 -146 -22 -11 -22 -11 -15 59 8 76 -6 208 -29 271 -10 28 -10 42
-2 50 16 16 23 14 46 -16z m-1682 -37 c26 -51 32 -83 21 -128 -5 -24 -10 -86
-10 -139 0 -78 -4 -103 -19 -129 -27 -44 -49 -35 -84 35 -28 56 -30 68 -30
170 0 93 4 118 23 160 31 67 51 88 69 73 8 -6 21 -25 30 -42z m1523 -54 c37
-120 20 -287 -35 -349 l-25 -28 -30 33 c-28 30 -30 38 -24 77 3 24 1 91 -6
148 -14 113 -8 152 32 202 l20 26 24 -22 c14 -13 33 -52 44 -87z m-1269 48
c10 -6 28 -28 39 -50 19 -37 19 -43 5 -102 -9 -37 -15 -112 -15 -180 l0 -118
-45 0 c-31 0 -51 6 -64 19 -66 66 -47 336 30 417 26 28 24 27 50 14z m957 -13
c43 -46 65 -116 70 -225 4 -81 1 -112 -13 -147 -19 -51 -38 -65 -88 -65 l-34
0 -7 123 c-4 67 -13 149 -21 182 -15 64 -7 93 36 136 24 24 31 24 57 -4z
m-645 -27 c53 -63 70 -131 75 -302 l4 -158 -28 -11 c-35 -13 -190 -7 -205 8
-8 8 -10 58 -7 155 6 164 29 255 77 307 36 39 53 39 84 1z m364 8 c57 -63 83
-168 83 -341 0 -150 7 -142 -120 -142 -127 0 -120 -8 -120 142 0 173 26 278
83 341 11 12 28 22 37 22 9 0 26 -10 37 -22z m-14200 -128 c45 -27 66 -73 60
-128 -13 -120 -174 -153 -237 -49 -52 85 10 197 110 197 19 0 49 -9 67 -20z
m28054 -3 c107 -72 53 -237 -79 -237 -38 0 -50 5 -83 39 -35 35 -39 44 -39 89
0 40 5 57 27 82 46 55 116 66 174 27z m-8789 -123 c137 -43 267 -99 583 -252
546 -263 701 -326 1001 -406 269 -72 394 -121 709 -278 205 -103 236 -125 293
-210 160 -237 406 -680 477 -858 77 -193 123 -269 190 -310 30 -18 37 -32 65
-123 62 -204 93 -258 184 -319 81 -55 176 -153 200 -206 19 -43 19 -43 -3
-137 -17 -69 -22 -106 -16 -142 14 -98 80 -184 170 -224 22 -10 94 -28 160
-39 136 -25 197 -45 281 -96 91 -55 160 -111 261 -212 152 -153 232 -278 219
-346 -4 -20 -10 -36 -15 -36 -4 0 -15 17 -25 38 -49 101 -225 293 -366 397
-95 70 -207 121 -293 134 -250 38 -318 63 -403 143 -28 26 -64 74 -80 105 -24
49 -30 72 -32 148 -2 55 2 114 11 152 14 59 13 64 -7 93 -12 17 -59 57 -106
89 -146 101 -207 187 -265 372 -23 76 -34 94 -83 145 -63 65 -105 138 -182
320 -28 65 -67 148 -87 184 -95 173 -276 490 -278 488 -2 -2 -8 -80 -14 -174
-38 -559 -202 -1060 -487 -1486 -83 -124 -122 -172 -69 -85 307 505 469 1138
434 1702 -8 121 -24 263 -31 270 -13 12 -304 168 -386 207 -148 70 -234 102
-437 159 -303 87 -520 182 -1010 446 -498 268 -630 326 -745 327 -66 1 -210
-42 -443 -130 -49 -19 -92 -34 -95 -34 -23 2 250 127 383 176 119 44 216 46
337 8z m-7550 -227 l3 -128 -127 -58 c-140 -64 -448 -226 -656 -345 -74 -42
-135 -76 -138 -76 -13 0 340 321 501 455 202 168 392 302 407 287 4 -4 8 -65
10 -135z m6818 39 c0 -2 -7 -7 -16 -10 -8 -3 -12 -2 -9 4 6 10 25 14 25 6z
m-5892 -369 c13 -13 10 -17 -22 -32 -45 -21 -84 -76 -93 -128 -9 -59 -25 -29
-31 57 -4 71 -3 76 22 101 24 24 33 27 68 22 22 -3 47 -12 56 -20z m2777 -2
c22 -21 25 -33 25 -92 l-1 -68 -24 47 c-26 49 -64 82 -108 93 -29 8 -27 22 7
35 39 16 76 11 101 -15z m-5281 -133 c27 -7 22 -11 -75 -49 -57 -22 -146 -55
-197 -73 -98 -35 -189 -84 -235 -128 -70 -67 -116 -212 -182 -577 -96 -525
-161 -746 -306 -1040 -61 -125 -191 -341 -174 -290 4 11 28 85 55 165 143 428
242 867 285 1265 21 189 29 508 17 630 -5 55 -7 104 -4 109 6 11 775 0 816
-12z m2614 -10 c9 -6 2 -19 -26 -48 -38 -40 -62 -98 -62 -148 0 -16 -4 -25
-10 -21 -17 10 -12 177 6 203 16 23 66 30 92 14z m2546 -14 c21 -33 27 -84 18
-153 -8 -53 -9 -57 -16 -30 -21 88 -30 109 -67 147 -43 46 -39 58 18 58 23 0
37 -7 47 -22z m-2387 -104 c22 -6 22 -7 5 -33 -40 -58 -46 -85 -47 -200 -1
-65 -6 -116 -11 -118 -17 -6 -51 40 -63 82 -15 54 -14 194 2 225 20 40 65 57
114 44z m2230 -18 c26 -23 28 -30 31 -118 4 -104 -9 -169 -39 -199 -36 -36
-44 -20 -41 77 4 101 -8 161 -43 216 -22 33 -23 37 -7 41 41 11 73 6 99 -17z
m-14481 -75 c98 -43 163 -137 171 -246 5 -62 -7 -127 -29 -158 -11 -15 -13 -9
-15 43 -5 247 -302 368 -487 199 l-55 -50 15 45 c27 80 111 157 204 187 41 14
143 3 196 -20z m26840 0 c62 -28 109 -72 140 -133 34 -67 31 -86 -8 -43 -69
79 -193 112 -300 81 -112 -32 -201 -150 -202 -267 -1 -33 -2 -59 -4 -59 -2 0
-12 19 -22 43 -24 52 -26 146 -4 210 27 81 110 157 204 188 41 14 143 3 196
-20z m-14405 -63 c-35 -69 -36 -73 -36 -183 0 -62 -4 -111 -9 -108 -36 23 -71
195 -55 276 14 76 42 98 110 89 l26 -4 -36 -70z m1845 47 c29 -31 38 -103 24
-189 -10 -63 -39 -138 -57 -149 -5 -3 -7 35 -5 84 4 101 -14 180 -54 238 l-24
36 27 6 c39 9 64 1 89 -26z m-1662 -64 c14 -16 15 -25 5 -72 -7 -34 -10 -99
-6 -175 6 -127 0 -152 -33 -134 -26 14 -58 99 -66 172 -7 74 12 157 47 201 24
32 31 33 53 8z m1463 -21 c45 -65 54 -152 28 -253 -19 -75 -42 -109 -69 -105
-20 3 -21 7 -17 138 2 84 -1 152 -9 178 -10 38 -9 46 6 63 22 25 33 21 61 -21z
m-1183 -3 c56 -41 7 -398 -59 -423 -62 -24 -125 199 -96 336 16 72 42 100 96
100 23 0 49 -6 59 -13z m965 -6 c75 -75 34 -416 -50 -416 -19 0 -30 12 -54 60
-28 57 -30 68 -34 204 -3 130 -2 146 15 158 28 20 100 17 123 -6z m6181 -45
c321 -83 539 -178 614 -267 28 -33 40 -69 60 -184 48 -266 20 -619 -69 -892
-32 -96 -108 -273 -118 -273 -2 0 6 51 19 114 59 291 69 605 25 798 -69 301
-222 480 -587 683 -65 37 -110 64 -99 61 11 -2 81 -20 155 -40z m-6812 8 c21
-6 22 -10 22 -128 0 -131 -16 -216 -51 -273 -11 -18 -29 -33 -39 -33 -10 0
-28 15 -39 33 -35 57 -51 142 -51 273 0 108 2 123 18 127 26 7 114 7 140 1z
m329 -8 c12 -11 6 -221 -8 -287 -15 -73 -48 -133 -76 -137 -18 -3 -27 7 -46
45 -35 69 -47 138 -47 268 0 100 2 114 18 119 26 7 150 2 159 -8z m-5176 -160
c21 -170 -6 -429 -71 -672 -16 -62 -35 -125 -41 -140 l-12 -29 -8 40 c-5 22
-13 148 -17 280 -12 330 -20 345 -191 345 -153 0 -444 -61 -735 -154 -59 -19
-104 -31 -100 -26 20 19 752 353 1069 487 l70 30 12 -35 c7 -19 18 -76 24
-126z m-8552 -32 c60 -17 127 -74 136 -115 4 -17 0 -33 -14 -50 -17 -21 -27
-24 -84 -24 -54 0 -72 5 -113 30 -88 55 -108 131 -41 160 41 18 53 18 116 -1z
m27045 2 c42 -18 52 -45 31 -89 -40 -86 -194 -137 -259 -86 -35 27 -33 60 5
104 62 70 155 100 223 71z m-10023 -366 c64 -156 138 -356 241 -660 87 -254
101 -331 78 -415 -28 -98 -143 -185 -246 -185 -91 0 -625 117 -649 142 -11 12
286 4 497 -13 147 -12 194 -4 231 40 46 55 43 80 -27 307 -118 380 -201 692
-250 937 -14 71 -26 138 -25 150 1 26 77 -126 150 -303z m-15953 -60 c477
-240 1328 -702 1458 -791 85 -59 225 -201 284 -288 86 -128 113 -206 279 -792
87 -310 200 -712 251 -894 50 -181 93 -337 96 -346 4 -13 -10 -20 -66 -34 -39
-10 -73 -16 -74 -14 -3 3 -331 1224 -432 1609 -80 303 -151 441 -303 588 -81
78 -134 113 -436 289 -132 77 -366 213 -520 303 -402 234 -865 520 -842 520 4
0 141 -67 305 -150z m25101 146 c-40 -36 -611 -381 -1134 -683 -482 -280 -577
-339 -658 -413 -99 -90 -186 -219 -236 -350 -16 -42 -136 -476 -267 -965 -130
-490 -238 -892 -240 -894 -4 -5 -144 30 -144 37 0 13 433 1555 487 1732 75
249 218 453 414 592 182 129 1862 1021 1778 944z m-7664 -460 c104 -271 147
-489 149 -756 1 -199 -8 -266 -54 -445 -57 -217 -136 -378 -327 -668 -68 -103
-162 -254 -210 -335 -180 -305 -408 -789 -529 -1120 -27 -74 -50 -127 -52
-120 -4 21 52 281 88 405 70 241 153 455 275 709 104 216 152 302 317 561 159
251 232 392 286 555 138 416 132 766 -24 1383 -10 43 40 -63 81 -169z m-12158
-67 c209 -74 409 -203 511 -332 56 -71 82 -115 60 -101 -328 205 -479 262
-592 224 -59 -19 -141 -104 -236 -244 -103 -151 -167 -227 -235 -275 l-47 -34
48 64 c71 96 144 258 219 482 37 111 77 212 88 225 28 31 77 29 184 -9z m3678
-146 c35 -18 73 -51 85 -74 8 -14 1 -16 -59 -15 -56 0 -75 -4 -115 -28 -88
-52 -131 -154 -102 -249 8 -26 12 -47 10 -47 -14 0 -63 32 -86 57 -98 103 -68
285 57 351 66 34 148 36 210 5z m6837 -5 c21 -12 45 -32 53 -44 14 -22 14 -22
-39 -22 -67 1 -120 -24 -156 -74 -35 -47 -46 -105 -30 -153 7 -20 10 -39 7
-41 -10 -10 -90 71 -104 103 -69 165 111 319 269 231z m-8756 -1296 c44 -179
115 -339 302 -682 129 -237 268 -522 320 -653 71 -181 131 -417 146 -572 7
-69 12 -77 -77 136 -83 197 -234 500 -381 762 -190 339 -272 515 -334 722 -51
167 -57 208 -57 395 0 223 11 254 36 105 11 -60 31 -157 45 -213z m-1731 277
c224 -45 388 -145 516 -315 48 -62 112 -199 133 -280 30 -117 21 -116 -56 0
-148 227 -312 356 -544 429 -104 33 -190 49 -465 87 -249 34 -302 44 -279 53
27 11 192 39 279 47 120 12 298 2 416 -21z m9733 -504 c33 -14 112 -81 112
-95 0 -3 -36 -5 -79 -5 -72 0 -83 -3 -123 -30 -77 -54 -116 -162 -87 -244 14
-40 7 -48 -25 -27 -125 81 -145 258 -39 358 59 56 163 75 241 43z m-4871 -100
c28 -15 63 -41 77 -59 l25 -34 -62 5 c-54 4 -69 1 -117 -24 -36 -18 -65 -43
-85 -71 -27 -39 -30 -52 -30 -115 0 -40 4 -82 8 -95 9 -23 8 -23 -20 -9 -70
37 -123 126 -123 206 0 20 11 59 24 87 55 119 188 166 303 109z m-10341 -586
c220 -30 496 -136 789 -302 l60 -34 357 138 c196 77 383 146 415 154 115 30
278 12 412 -46 56 -24 48 -8 104 -206 15 -55 15 -56 -34 -22 -51 36 -166 88
-229 104 -46 12 -89 16 -145 12 -74 -4 -107 -15 -470 -157 -214 -84 -397 -154
-405 -157 -9 -2 -60 21 -115 52 -233 132 -445 226 -611 271 -75 20 -131 27
-234 31 -201 8 -288 -20 -443 -140 -99 -76 -133 -81 -285 -43 -355 91 -522 30
-723 -260 -40 -58 -86 -120 -101 -137 l-29 -30 -87 9 c-48 4 -136 8 -197 9
-104 0 -114 -2 -177 -33 -37 -18 -92 -55 -123 -83 -57 -53 -143 -174 -190
-269 -45 -91 -43 -90 -165 -90 -188 0 -380 -67 -467 -164 -119 -133 -265 -529
-353 -955 l-27 -135 -64 -16 c-164 -40 -273 -164 -331 -375 -32 -118 -32 -395
1 -545 165 -770 782 -1296 1141 -974 54 49 114 139 136 207 9 29 18 53 19 55
1 1 43 -18 93 -43 375 -187 673 -158 852 83 l25 33 75 -16 c292 -63 510 1 636
186 40 57 52 69 69 64 11 -3 82 -9 158 -12 l138 -6 -148 -77 c-557 -291 -1066
-670 -1524 -1136 -188 -191 -211 -228 -217 -354 -5 -116 20 -183 97 -261 78
-77 145 -102 261 -97 67 4 96 10 138 32 70 35 123 90 158 162 25 51 29 70 29
144 0 76 -4 93 -33 152 -18 36 -50 82 -72 102 l-39 35 107 84 c282 221 547
388 952 600 536 280 1177 493 1730 576 227 33 263 35 300 16 68 -35 147 -56
230 -62 l85 -5 347 136 c191 74 367 145 390 157 106 54 235 159 293 238 l30
41 66 -6 c94 -9 167 9 241 59 71 48 121 115 143 192 l16 53 52 -20 c127 -49
269 6 332 127 20 38 24 40 115 62 1214 293 2700 98 4185 -549 200 -87 653
-311 845 -417 l145 -81 -260 0 -261 0 -12 46 c-9 34 -28 61 -70 104 -115 114
-338 191 -647 221 -149 14 -455 6 -585 -16 -306 -51 -512 -152 -576 -282 -13
-27 -20 -66 -22 -133 l-4 -96 -45 -24 c-118 -62 -227 -168 -277 -269 -63 -125
-61 -102 -61 -731 0 -569 0 -576 23 -647 44 -142 144 -258 299 -349 l63 -37 0
-2211 0 -2211 -66 -34 c-110 -57 -201 -152 -225 -233 -5 -18 -9 -189 -10 -380
l0 -346 -84 -47 c-166 -93 -271 -205 -294 -315 -7 -33 -11 -225 -11 -550 l0
-499 -82 28 -83 28 -3 484 c-1 320 1 502 9 537 28 136 145 288 297 386 l72 47
0 267 c0 305 9 381 50 470 33 72 124 171 206 228 l54 37 0 2107 0 2107 -55 38
c-94 64 -207 192 -253 287 -78 159 -75 134 -79 782 -4 556 -3 581 17 659 48
193 169 364 326 464 41 26 41 28 47 96 9 99 49 180 132 262 145 143 446 246
789 271 l99 7 -94 34 c-477 172 -1101 320 -1594 378 -219 25 -182 39 -398
-151 -187 -165 -202 -181 -439 -479 -174 -220 -472 -502 -613 -580 -78 -44
-171 -80 -439 -172 -365 -124 -423 -151 -676 -311 -74 -47 -198 -123 -275
-170 -77 -46 -144 -87 -149 -90 -66 -40 390 340 522 435 113 81 259 151 607
290 170 68 333 139 362 158 148 98 397 342 609 596 146 174 270 294 428 414
l119 90 -179 9 c-380 19 -876 -22 -1261 -105 -99 -21 -103 -23 -130 -62 -65
-94 -211 -167 -333 -167 -51 0 -60 -3 -65 -21 -12 -37 -136 -152 -201 -186
-73 -39 -160 -63 -227 -63 -48 0 -53 -3 -122 -69 -146 -139 -210 -172 -682
-355 l-352 -136 -86 0 c-95 0 -203 21 -280 54 -47 21 -55 21 -150 10 -435 -53
-933 -192 -1415 -397 -270 -114 -702 -346 -952 -510 -170 -112 -310 -218 -304
-231 46 -103 59 -148 63 -221 24 -394 -379 -668 -735 -500 -277 131 -381 482
-219 740 61 98 469 496 702 685 50 40 92 74 95 77 2 2 -18 -5 -45 -17 -80 -34
-163 -50 -267 -50 -116 0 -218 18 -336 60 -48 17 -94 33 -102 36 -10 3 -25
-11 -43 -40 -40 -63 -155 -169 -218 -199 -175 -85 -388 -72 -578 34 -340 191
-627 628 -731 1114 -31 146 -38 389 -15 526 19 118 65 250 116 334 47 78 160
184 234 218 33 15 66 31 74 35 8 5 28 69 47 152 108 465 243 784 396 939 84
85 320 176 490 188 l87 6 51 87 c177 300 426 429 727 377 l73 -13 44 66 c135
203 272 323 426 371 40 13 105 23 170 26 105 5 164 -3 362 -51 l57 -14 73 55
c183 138 379 186 624 152z m25399 -8 c114 -24 199 -62 300 -138 l81 -60 59 13
c33 7 103 22 155 33 180 39 336 21 483 -56 90 -47 206 -161 297 -291 l65 -94
65 9 c111 14 249 9 310 -11 183 -62 325 -187 435 -384 l40 -72 55 0 c134 -1
379 -80 482 -155 155 -113 315 -463 428 -936 l42 -177 65 -21 c223 -73 383
-303 424 -607 16 -124 6 -371 -21 -499 -43 -205 -148 -470 -252 -635 -129
-204 -307 -383 -479 -479 -189 -106 -404 -119 -577 -35 -67 33 -174 132 -222
205 l-36 56 -70 -28 c-149 -59 -242 -81 -374 -86 -92 -4 -142 -1 -190 10 -36
9 -66 15 -67 14 0 -1 56 -49 125 -107 70 -58 233 -211 363 -340 225 -223 239
-239 278 -320 102 -212 61 -442 -108 -603 -288 -275 -765 -130 -857 259 -28
122 -15 221 52 370 10 23 -315 247 -582 400 -445 255 -817 419 -1271 559 -290
89 -553 147 -818 179 -91 11 -104 10 -142 -6 -80 -35 -193 -58 -285 -58 l-89
0 -352 136 c-473 183 -536 216 -683 357 l-74 70 -78 -2 c-173 -4 -346 84 -443
225 l-28 41 -80 5 c-113 7 -207 53 -289 144 l-59 66 -144 28 c-372 75 -850
113 -1174 95 l-140 -8 60 -19 c33 -10 94 -23 135 -28 178 -24 286 -82 660
-354 383 -279 571 -367 859 -401 267 -32 403 -66 532 -130 125 -63 210 -138
310 -271 73 -99 88 -111 469 -369 80 -54 150 -102 155 -107 34 -31 -391 151
-519 222 -86 47 -113 70 -200 163 -119 127 -188 183 -283 231 -100 50 -193 73
-409 101 -184 24 -302 51 -412 94 -180 71 -391 203 -654 409 -253 197 -355
257 -493 287 -38 8 -167 47 -285 86 l-215 70 -160 -21 c-490 -63 -997 -181
-1459 -340 -191 -65 -198 -69 -116 -70 97 0 301 -27 415 -55 362 -86 573 -258
592 -481 l6 -71 46 -29 c65 -41 190 -169 230 -236 45 -78 80 -166 97 -250 12
-59 14 -168 12 -642 l-3 -571 -26 -80 c-13 -44 -42 -111 -63 -149 -45 -80
-162 -207 -241 -262 l-55 -37 0 -2107 0 -2107 54 -37 c84 -58 172 -156 209
-233 l32 -68 3 -330 3 -330 72 -45 c94 -58 213 -178 254 -256 61 -115 63 -140
61 -675 l-3 -482 -82 -28 -83 -28 0 499 c0 325 -4 517 -11 550 -23 110 -128
222 -294 315 l-84 47 0 346 c-1 415 0 413 -100 512 -40 40 -93 80 -133 100
l-68 35 0 2212 0 2211 53 30 c183 104 286 235 323 413 12 60 14 162 12 623 -3
532 -4 553 -24 606 -63 164 -163 278 -317 360 l-45 24 -4 95 c-3 65 -10 108
-22 134 -63 129 -270 231 -576 282 -130 22 -436 30 -585 16 -215 -21 -404 -69
-530 -134 -85 -45 -171 -132 -187 -191 l-12 -46 -290 0 c-159 0 -287 2 -285 4
13 13 329 181 509 271 857 429 1684 702 2510 829 702 108 1412 98 2016 -28
236 -49 220 -43 254 -102 16 -29 44 -64 63 -78 75 -57 186 -72 266 -36 24 11
45 19 46 18 1 -2 7 -23 14 -48 29 -101 99 -182 200 -229 47 -22 70 -26 141
-26 52 0 98 6 119 14 34 15 35 14 60 -20 79 -104 205 -210 320 -269 25 -12
200 -83 390 -157 l346 -135 85 5 c83 6 162 27 230 62 37 19 73 17 300 -16 372
-56 813 -179 1215 -339 489 -195 1049 -513 1437 -814 l138 -106 -40 -36 c-22
-20 -54 -66 -72 -102 -29 -59 -33 -76 -33 -152 0 -74 4 -93 29 -144 35 -72 88
-127 158 -162 42 -22 71 -28 138 -32 116 -5 183 20 261 97 77 78 102 145 97
261 -7 134 -23 158 -276 410 -287 286 -497 462 -807 678 -231 162 -434 285
-678 412 l-128 67 118 6 c65 4 127 9 138 12 15 4 25 -3 41 -32 55 -97 148
-174 260 -215 81 -29 282 -32 399 -4 l79 18 16 -23 c69 -108 196 -189 329
-211 144 -23 367 30 559 133 51 27 94 49 96 49 3 0 14 -29 26 -64 12 -36 38
-91 59 -123 320 -494 1039 21 1222 877 33 150 33 427 1 545 -63 229 -196 365
-374 382 l-66 6 -12 66 c-20 121 -109 468 -151 588 -54 154 -155 364 -207 430
-34 42 -59 60 -128 93 -123 59 -214 80 -351 80 l-113 0 -28 51 c-128 237 -200
322 -327 385 -77 38 -82 39 -184 39 -58 -1 -145 -5 -194 -9 -105 -11 -102 -13
-207 138 -92 134 -148 196 -216 241 -129 86 -268 99 -490 46 -198 -47 -213
-44 -327 46 -139 109 -242 139 -445 130 -224 -9 -462 -94 -806 -287 l-110 -61
-395 153 c-347 134 -404 153 -465 157 -112 6 -238 -31 -353 -105 -63 -40 -63
-40 -25 96 27 94 27 95 72 117 116 58 296 78 414 48 32 -8 211 -75 399 -149
l342 -133 60 32 c476 259 805 345 1090 286z m-20194 -211 c496 -50 919 -204
1334 -488 180 -122 314 -230 625 -502 210 -184 366 -312 485 -402 587 -441
1183 -632 2043 -655 l242 -6 0 -120 0 -120 -214 6 c-847 27 -1499 207 -2097
579 -193 121 -354 250 -674 540 -456 412 -644 553 -930 694 -177 87 -273 123
-452 170 -562 148 -1171 100 -2058 -161 -318 -94 -489 -152 -1584 -536 l-54
-19 6 103 c3 56 12 122 19 146 l13 44 365 129 c595 209 764 266 975 329 465
139 879 226 1260 264 161 16 557 19 696 5z m15405 -5 c389 -38 794 -122 1269
-264 211 -63 380 -120 975 -329 l365 -129 13 -44 c7 -24 16 -90 19 -146 l6
-103 -54 19 c-1038 365 -1272 444 -1584 536 -887 261 -1496 309 -2058 161
-179 -47 -275 -83 -452 -170 -286 -141 -474 -282 -930 -694 -320 -290 -481
-419 -674 -540 -593 -369 -1240 -549 -2078 -578 l-203 -7 0 120 0 120 228 6
c757 22 1319 181 1833 518 190 125 324 232 687 547 387 337 594 493 836 632
328 188 707 309 1101 349 140 14 531 12 701 -4z m-20626 -118 c47 -23 58 -45
45 -94 -12 -49 -141 -84 -239 -63 -108 22 -149 91 -86 144 17 14 47 28 68 31
20 4 44 8 52 10 32 7 117 -8 160 -28z m25367 3 c82 -36 80 -104 -2 -144 -51
-26 -182 -27 -237 -2 -103 45 -78 141 42 165 59 12 144 4 197 -19z m-2695
-126 c73 -20 135 -38 137 -40 3 -3 0 -8 -5 -13 -5 -5 -65 11 -144 39 -74 27
-132 49 -128 49 4 1 67 -15 140 -35z m-20187 -19 c-71 -25 -124 -40 -129 -34
-13 12 -14 12 109 46 154 43 160 39 20 -12z m-3448 4 c114 -43 89 -142 -44
-170 -70 -14 -173 0 -212 29 -55 40 -30 120 43 141 44 13 180 13 213 0z m2323
-51 c-36 -66 -65 -148 -86 -238 -20 -88 -29 -362 -15 -479 19 -169 0 -113 -40
119 -34 194 -27 426 17 561 14 45 17 48 82 71 37 14 68 24 69 23 2 -1 -11 -27
-27 -57z m22544 12 c8 0 35 -94 47 -160 18 -101 13 -318 -10 -450 -25 -144
-42 -222 -47 -218 -2 2 1 47 7 99 14 117 5 391 -15 479 -20 88 -47 164 -82
230 -16 30 -30 58 -32 62 -2 4 26 -3 62 -17 37 -14 68 -25 70 -25z m2403 31
c102 -47 74 -134 -53 -162 -65 -15 -168 -2 -210 26 -62 40 -53 103 19 135 58
27 186 27 244 1z m-25117 -116 c-75 -149 -106 -339 -96 -585 4 -91 9 -181 11
-200 3 -19 -4 1 -15 45 -62 255 -68 529 -15 710 14 49 16 50 82 76 37 15 69
27 69 28 1 0 -15 -33 -36 -74z m22887 -6 c53 -110 57 -429 8 -671 -16 -76 -30
-136 -32 -135 -2 2 2 51 8 108 27 249 -10 541 -89 700 l-38 76 65 -27 c44 -17
70 -35 78 -51z m-23031 -26 c-38 -58 -83 -205 -102 -333 -13 -89 -15 -151 -11
-275 4 -88 9 -178 12 -200 10 -83 -35 125 -51 230 -29 193 -6 514 40 562 12
12 102 50 124 52 7 1 3 -13 -12 -36z m23115 16 c32 -12 63 -27 68 -33 44 -56
65 -373 37 -561 -15 -102 -61 -303 -51 -225 2 19 7 107 11 195 5 125 3 185
-10 275 -19 127 -62 268 -101 330 -14 22 -22 40 -19 40 4 0 33 -10 65 -21z
m-22178 -34 c-158 -43 -251 -144 -300 -325 -28 -103 -25 -372 5 -509 50 -220
135 -398 255 -529 50 -53 161 -128 224 -149 60 -21 41 -28 -32 -13 -158 33
-328 174 -429 355 -44 79 -91 203 -117 306 -20 81 -23 119 -23 269 0 188 9
242 60 357 69 157 199 252 344 252 l65 0 -52 -14z m3219 0 c412 -48 774 -192
1112 -443 130 -97 220 -174 492 -419 352 -317 460 -405 681 -551 414 -273 885
-457 1423 -556 266 -49 491 -71 828 -82 l212 -7 0 -55 0 -55 -242 6 c-920 24
-1622 226 -2258 650 -208 139 -371 270 -720 576 -431 378 -627 524 -859 641
-585 293 -1274 277 -2356 -56 -99 -31 -481 -161 -850 -290 -368 -129 -673
-234 -677 -234 -10 0 -54 88 -47 94 9 10 1176 415 1379 479 577 184 1002 281
1355 310 116 10 413 5 527 -8z m15480 -14 c335 -50 669 -133 1158 -288 203
-64 1370 -469 1379 -479 7 -6 -37 -94 -47 -94 -4 0 -309 105 -677 234 -665
233 -911 313 -1160 380 -752 202 -1326 226 -1785 76 -142 -47 -359 -156 -503
-253 -161 -108 -306 -225 -577 -464 -374 -329 -549 -469 -760 -610 -633 -422
-1332 -624 -2242 -650 l-228 -6 0 55 0 55 193 7 c1019 36 1774 277 2442 780
115 86 228 183 479 409 394 356 519 454 741 582 243 140 546 241 820 274 50 6
101 13 115 15 14 3 135 3 270 1 178 -3 282 -9 382 -24z m2583 8 c82 -31 173
-119 220 -214 116 -234 96 -614 -47 -900 -109 -217 -278 -369 -453 -405 -76
-16 -91 -8 -28 15 297 107 520 556 500 1005 -14 290 -109 443 -311 501 l-61
18 62 0 c40 1 82 -6 118 -20z m-22392 -64 c-40 -75 -76 -210 -93 -349 -12 -92
-9 -310 4 -421 3 -22 -3 -6 -14 35 -61 235 -67 542 -12 702 16 48 20 52 77 74
33 12 63 23 66 23 4 1 -9 -28 -28 -64z m23462 36 c46 -17 51 -23 67 -69 55
-160 49 -467 -12 -702 -11 -41 -17 -57 -15 -35 14 116 17 329 5 421 -17 139
-53 274 -94 350 -37 70 -40 69 49 35z m-23626 -107 c-70 -141 -105 -353 -95
-579 3 -77 8 -158 11 -180 2 -23 -3 -10 -14 31 -49 189 -65 459 -36 610 26
134 28 138 98 167 34 14 65 26 68 26 4 1 -11 -33 -32 -75z m23789 44 c49 -20
53 -24 67 -72 39 -136 46 -333 19 -518 -16 -107 -59 -295 -49 -213 3 22 8 103
11 180 10 226 -26 440 -97 582 -28 55 -33 73 -21 68 9 -4 41 -16 70 -27z
m-23931 -70 c-91 -158 -130 -435 -105 -748 8 -103 -3 -75 -34 90 -33 171 -33
451 0 566 l24 82 66 25 c37 14 69 26 70 26 2 1 -7 -18 -21 -41z m24140 -12 c2
-2 13 -38 25 -82 19 -68 22 -104 22 -264 0 -184 -11 -275 -49 -420 l-14 -55 4
50 c31 310 -1 582 -89 756 l-34 68 66 -26 c37 -13 68 -26 69 -27z m-25351
-257 c-49 -488 -58 -736 -36 -917 29 -230 136 -457 370 -786 50 -71 89 -130
87 -132 -2 -2 -37 23 -78 57 -378 313 -539 621 -539 1034 0 192 42 479 104
711 35 130 110 333 114 308 2 -12 -8 -135 -22 -275z m26429 177 c46 -126 107
-364 134 -526 97 -583 3 -932 -342 -1281 -84 -85 -235 -215 -241 -208 -2 2 32
54 75 114 110 153 204 303 260 415 150 300 167 523 94 1265 -13 138 -26 270
-29 293 -5 60 6 44 49 -72z m-14875 64 c52 -5 125 -15 163 -21 l67 -11 0 -155
c0 -142 -1 -154 -17 -149 -70 21 -354 40 -618 39 -314 0 -501 -14 -742 -59
-73 -13 -139 -24 -148 -24 -18 0 -21 83 -4 144 14 52 76 116 148 155 102 54
168 66 521 95 79 7 532 -3 630 -14z m4025 -5 c72 -8 144 -19 160 -23 l30 -8 3
-139 c1 -77 1 -144 -2 -150 -3 -8 -31 -8 -102 1 -55 7 -199 18 -321 25 -329
19 -709 -6 -1005 -65 l-108 -22 0 73 c0 120 41 176 177 243 80 39 158 55 323
70 69 6 145 12 170 14 97 8 552 -4 675 -19z m-14541 -58 c-78 -147 -116 -404
-96 -648 6 -79 10 -144 8 -146 -8 -8 -48 231 -58 353 -13 149 -1 309 27 363
21 42 83 110 120 132 16 10 30 17 32 15 1 -1 -13 -32 -33 -69z m24433 0 c23
-25 49 -59 58 -77 28 -55 40 -214 27 -364 -10 -122 -50 -361 -58 -353 -2 2 2
68 8 146 20 240 -18 496 -93 642 -19 35 -36 68 -38 72 -9 21 59 -26 96 -66z
m-26277 -298 c-68 -655 -83 -933 -60 -1075 32 -204 135 -413 358 -725 115
-163 113 -158 56 -118 -77 54 -314 296 -371 379 -158 232 -213 429 -199 710
12 236 55 525 112 755 35 138 128 415 132 389 2 -12 -11 -154 -28 -315z
m28050 162 c119 -357 187 -784 177 -1116 -6 -182 -15 -230 -68 -357 -89 -209
-258 -419 -478 -591 -33 -27 -61 -46 -61 -42 0 3 47 72 104 153 242 344 333
539 359 770 9 85 8 147 -6 350 -14 198 -62 697 -91 962 -5 43 -5 44 9 19 7
-14 32 -81 55 -148z m-28436 138 c54 -42 25 -109 -66 -150 -41 -18 -71 -23
-135 -24 -73 0 -84 3 -107 24 -46 43 -27 95 47 133 61 31 84 36 163 37 58 1
76 -3 98 -20z m28994 6 c113 -34 161 -122 90 -165 -84 -51 -274 -2 -319 82
-14 26 4 72 34 86 33 16 137 14 195 -3z m-15812 -97 c41 -44 54 -84 54 -161
l0 -74 -52 12 -53 11 -3 128 c-2 119 -2 126 15 117 10 -5 28 -20 39 -33z
m4033 -84 c6 -21 11 -63 11 -91 0 -58 0 -58 -72 -47 l-38 7 0 131 0 131 44
-46 c25 -26 49 -63 55 -85z m-4599 -214 c140 -10 275 -25 333 -36 l27 -6 0
-244 0 -244 -540 0 c-586 0 -588 0 -624 -55 -10 -15 -20 -51 -23 -81 l-6 -54
-53 0 c-47 0 -54 3 -59 23 -2 12 -16 126 -30 252 -14 127 -29 241 -32 255 -3
14 -21 -97 -39 -250 -18 -151 -33 -276 -33 -278 -1 -2 -22 -2 -48 0 l-48 3 -3
215 c-3 258 2 283 69 349 78 76 152 108 299 126 267 34 556 42 810 25z m4155
-15 c77 -8 152 -17 168 -21 l27 -6 0 -244 0 -244 -664 0 -664 0 -5 23 c-3 12
-14 96 -23 186 -21 185 -22 184 -49 -56 l-18 -153 -58 0 -59 0 0 145 c0 166 4
178 75 244 95 88 206 117 525 140 168 13 572 5 745 -14z m-9885 -35 c240 -19
424 -67 625 -165 208 -102 370 -221 768 -568 379 -330 552 -466 806 -632 449
-294 927 -486 1480 -595 129 -26 149 -33 200 -69 84 -58 241 -134 376 -181 66
-22 120 -42 122 -44 2 -1 -34 -28 -79 -58 -46 -30 -112 -78 -148 -106 l-65
-51 -50 28 c-27 16 -104 60 -170 98 -1153 667 -2381 1084 -3521 1197 -664 66
-1368 26 -1906 -110 l-96 -24 -52 27 c-70 36 -163 38 -232 4 -52 -25 -115 -88
-130 -131 l-10 -29 -44 34 c-24 19 -69 42 -99 51 -59 19 -60 20 -70 107 -6 52
-4 62 22 105 78 127 112 267 120 487 l5 161 267 92 c733 253 1239 366 1701
381 25 0 106 -4 180 -9z m15540 -15 c375 -43 829 -159 1417 -362 l253 -88 0
-120 c0 -205 32 -354 106 -495 42 -79 45 -87 39 -140 -10 -88 -10 -87 -68 -92
-50 -4 -137 -39 -184 -73 -21 -16 -22 -15 -37 13 -68 132 -225 185 -356 120
l-53 -27 -123 30 c-645 154 -1419 176 -2204 63 -1021 -147 -2119 -541 -3165
-1138 l-200 -113 -40 32 c-22 18 -82 60 -134 95 l-94 63 119 42 c136 47 258
106 357 172 62 41 80 47 210 73 663 131 1215 380 1767 798 156 119 239 187
515 428 122 105 272 233 335 284 487 391 898 507 1540 435z m-9207 -21 c15 -5
17 -24 17 -225 l0 -219 -55 0 -55 0 0 231 0 231 38 -6 c20 -4 45 -9 55 -12z
m3990 -6 c16 -8 17 -34 17 -318 l0 -310 -75 0 -75 0 0 45 c0 38 3 45 20 45 20
0 20 7 20 280 l0 281 38 -7 c20 -4 45 -11 55 -16z m-17682 -114 c-65 -382 -71
-828 -15 -1109 50 -248 150 -452 342 -692 45 -57 79 -103 75 -103 -20 0 -186
136 -253 206 -170 178 -267 365 -325 624 -22 102 -31 408 -16 537 18 142 47
280 82 385 31 94 118 283 126 275 2 -3 -5 -58 -16 -123z m29779 11 c161 -343
204 -840 103 -1195 -79 -278 -260 -526 -505 -691 -35 -24 -58 -36 -52 -28 6 8
42 52 80 99 164 205 270 407 323 612 47 182 56 276 55 573 0 272 -16 450 -59
678 -12 65 -12 70 2 52 8 -11 32 -56 53 -100z m-30152 79 c51 -36 9 -110 -76
-134 -64 -18 -149 -13 -172 10 -39 39 -20 82 53 116 62 29 160 33 195 8z
m30653 1 c83 -30 114 -81 74 -121 -20 -20 -34 -24 -87 -24 -72 0 -159 34 -178
70 -16 29 -6 64 22 78 34 16 119 14 169 -3z m214 -400 c91 -167 162 -374 196
-575 19 -110 16 -376 -5 -475 -57 -264 -178 -485 -375 -688 -57 -59 -106 -105
-108 -103 -3 2 20 47 51 99 143 242 244 490 283 692 23 121 23 413 0 583 -15
107 -77 465 -92 530 -9 39 3 24 50 -63z m-31244 -151 c-59 -325 -74 -476 -68
-684 6 -192 18 -263 74 -433 38 -115 140 -331 217 -462 75 -125 73 -122 39
-97 -43 31 -154 151 -216 234 -170 228 -254 459 -264 729 -9 234 29 451 117
671 43 107 128 273 136 265 3 -3 -13 -103 -35 -223z m13310 -237 l36 -112 37
118 c24 76 42 117 51 117 9 0 27 -41 52 -117 l37 -116 39 116 c21 65 44 117
51 117 6 0 25 -39 40 -87 50 -155 44 -152 86 -28 22 67 42 110 50 110 8 0 27
-41 49 -107 19 -60 38 -108 41 -108 3 0 20 50 39 111 24 76 39 109 49 107 8
-2 30 -52 51 -118 l38 -115 37 118 c24 76 42 117 51 117 9 0 27 -40 51 -117
l37 -118 39 118 c22 65 45 117 52 117 7 0 27 -47 47 -110 19 -60 36 -110 39
-110 3 0 22 48 41 108 22 66 40 107 49 107 9 0 27 -41 49 -107 19 -60 38 -108
41 -108 3 0 20 50 39 110 20 63 40 110 47 110 7 0 30 -52 52 -117 l39 -118 37
118 c23 73 42 117 51 117 8 0 27 -44 50 -117 l38 -118 39 118 c23 67 45 117
52 117 8 0 27 -45 46 -110 19 -60 36 -110 40 -110 3 0 22 48 41 108 22 66 40
107 49 107 9 0 27 -41 49 -107 19 -60 38 -108 41 -108 3 0 20 50 39 110 20 63
40 110 47 110 7 0 30 -52 52 -117 l39 -118 37 118 c21 66 42 117 49 117 7 0
30 -52 51 -117 l39 -118 40 118 c23 71 44 117 51 114 6 -2 26 -51 45 -110 19
-59 37 -107 41 -107 3 0 22 48 41 108 23 68 40 107 49 107 9 0 27 -40 51 -114
20 -63 38 -110 41 -105 3 5 20 57 38 117 19 61 39 107 46 107 7 0 30 -51 52
-117 l39 -118 38 118 c20 64 42 117 49 117 6 0 29 -53 50 -117 l39 -118 40
118 c22 68 44 116 50 114 6 -2 27 -51 46 -110 20 -59 38 -107 41 -107 3 0 22
48 41 108 22 68 40 107 49 107 9 0 27 -41 50 -115 20 -63 38 -110 41 -105 3 6
21 58 39 118 20 63 39 107 46 107 8 0 28 -47 49 -112 20 -62 38 -115 40 -117
2 -1 20 49 40 113 20 64 42 116 49 116 6 0 29 -53 50 -117 l39 -118 40 118
c22 68 44 116 50 114 6 -2 27 -51 46 -110 20 -59 38 -107 41 -107 3 0 22 48
41 108 20 60 41 107 48 107 7 0 28 -49 50 -115 20 -63 39 -110 42 -105 3 6 21
58 39 118 20 64 39 107 46 107 8 0 28 -46 49 -115 20 -63 38 -115 40 -115 3 0
21 52 41 115 20 63 41 115 48 115 7 0 27 -48 46 -107 19 -60 37 -111 40 -115
3 -4 23 44 44 108 22 67 42 114 49 111 6 -2 27 -51 46 -110 20 -59 38 -107 41
-107 3 0 21 46 39 103 18 56 37 106 42 111 5 6 9 -215 9 -529 0 -296 -2 -536
-4 -534 -2 2 -25 124 -52 271 -26 147 -49 266 -51 264 -3 -3 -82 -429 -84
-451 -2 -23 -11 20 -49 229 -22 121 -41 221 -43 222 -2 2 -20 -94 -42 -214
-21 -119 -41 -220 -45 -225 -3 -4 -24 92 -45 213 -21 121 -42 217 -46 213 -4
-5 -24 -106 -45 -225 -21 -120 -39 -216 -41 -214 -4 4 -83 433 -83 450 0 33
-13 -25 -46 -207 -22 -123 -42 -206 -48 -204 -6 2 -26 92 -46 199 -19 108 -38
199 -41 202 -3 3 -20 -76 -38 -177 -18 -100 -34 -183 -35 -185 -2 -1 -10 0
-19 3 -11 5 -22 42 -37 128 -13 67 -28 151 -35 187 l-12 65 -11 -55 c-11 -51
-52 -279 -52 -287 0 -2 -11 -3 -24 -3 -27 0 -24 -10 -68 225 -24 135 -19 141
-58 -72 l-22 -123 -29 0 c-33 0 -30 -9 -63 175 -13 72 -26 123 -29 115 -4 -8
-16 -69 -27 -135 -12 -66 -24 -123 -26 -126 -2 -4 -18 -4 -36 0 l-32 7 -25
139 c-28 154 -27 154 -57 -21 l-18 -105 -40 3 -40 3 -21 117 c-12 65 -24 120
-26 123 -3 3 -13 -41 -23 -98 -24 -144 -19 -134 -68 -128 l-43 6 -19 113 c-11
62 -23 107 -26 100 -4 -7 -15 -57 -25 -110 l-17 -98 -43 0 c-50 0 -46 -8 -71
135 l-18 100 -21 -110 -20 -110 -46 -3 c-53 -3 -49 -11 -70 121 -7 42 -16 77
-20 77 -3 0 -12 -35 -19 -77 -19 -119 -22 -125 -72 -121 -48 3 -44 -4 -71 148
l-13 75 -18 -95 c-25 -137 -21 -130 -71 -130 -50 0 -44 -11 -70 129 -8 47 -17
86 -18 88 -2 1 -12 -47 -22 -107 l-18 -110 -47 0 -47 0 -17 89 c-9 49 -16 97
-16 107 -1 38 -18 -10 -30 -86 -19 -113 -23 -120 -69 -120 -22 0 -41 5 -44 13
-2 6 -13 59 -23 117 l-18 105 -23 -119 c-12 -65 -24 -120 -25 -121 -2 -2 -21
-5 -43 -7 l-40 -3 -21 113 c-11 62 -23 114 -26 117 -2 2 -10 -30 -17 -73 -7
-42 -17 -98 -23 -124 -9 -47 -10 -48 -48 -48 -43 0 -39 -10 -66 147 -10 57
-19 101 -21 99 -2 -2 -14 -61 -27 -130 -13 -70 -25 -128 -27 -130 -2 -2 -18
-6 -36 -9 -36 -7 -31 -21 -69 193 l-17 95 -23 -125 c-13 -69 -26 -140 -29
-157 -5 -28 -10 -33 -34 -33 -16 0 -31 6 -34 13 -2 6 -15 72 -27 145 -13 72
-26 132 -30 132 -3 0 -16 -62 -29 -137 -30 -172 -35 -185 -63 -181 -20 3 -24
16 -50 158 -15 85 -29 162 -31 170 -1 8 -18 -69 -36 -172 -25 -135 -38 -189
-49 -193 -9 -3 -18 -1 -22 5 -3 5 -19 81 -34 167 -15 87 -30 167 -33 178 -4
11 -23 -69 -43 -183 -36 -197 -43 -222 -56 -209 -4 4 -23 98 -44 209 -25 135
-39 195 -44 178 -3 -14 -22 -115 -42 -225 -20 -110 -37 -201 -39 -203 -4 -5
-82 403 -86 452 0 6 -20 -94 -44 -223 -24 -128 -45 -235 -47 -237 -2 -1 -21
98 -43 222 -22 123 -42 224 -45 224 -3 0 -23 -99 -45 -220 -21 -121 -42 -217
-45 -213 -4 5 -24 106 -45 226 -21 119 -40 215 -42 213 -2 -2 -24 -115 -48
-252 -25 -137 -47 -253 -49 -259 -3 -5 -5 230 -5 524 -1 294 2 531 7 527 4 -4
23 -58 43 -119z m-4865 -376 c817 -88 1567 -291 2351 -639 95 -41 171 -77 169
-79 -1 -2 -47 15 -102 37 -482 197 -1123 396 -1609 499 -818 173 -1599 214
-2314 120 -84 -11 -156 -18 -158 -15 -12 12 395 73 612 91 236 20 800 13 1051
-14z m15361 14 c219 -18 411 -45 573 -80 117 -25 101 -25 -70 0 -432 64 -1009
69 -1527 15 -744 -78 -1557 -286 -2357 -601 -82 -33 -151 -58 -153 -56 -4 5
301 139 447 197 756 301 1585 491 2330 533 172 10 589 5 757 -8z m-24221 -97
c-6 -62 -11 -76 -41 -109 -43 -48 -78 -117 -102 -200 -15 -54 -18 -101 -17
-299 0 -206 3 -255 27 -399 15 -91 25 -166 24 -168 -6 -6 -79 170 -112 272
-147 449 -67 872 182 961 21 7 40 13 42 14 2 0 1 -32 -3 -72z m32184 42 c88
-45 152 -138 192 -275 19 -68 22 -104 22 -235 0 -170 -14 -262 -62 -415 -29
-92 -113 -297 -119 -291 -2 2 5 59 16 127 36 225 44 325 38 508 -6 194 -18
257 -70 355 -18 34 -53 77 -83 103 -50 43 -52 48 -56 100 l-3 55 43 -6 c23 -3
60 -15 82 -26z m-25448 -35 c-44 -21 -56 -32 -73 -71 -35 -77 -2 -157 76 -186
42 -15 45 -28 8 -28 -52 1 -110 35 -132 79 -56 109 12 231 128 231 l46 0 -53
-25z m18645 5 c43 -26 67 -74 67 -137 0 -80 -52 -139 -132 -150 -53 -7 -54 7
-2 29 56 23 82 69 77 136 -4 61 -29 94 -92 123 l-40 18 45 0 c28 1 57 -6 77
-19z m-18204 -17 c-7 -2 -19 -2 -25 0 -7 3 -2 5 12 5 14 0 19 -2 13 -5z m9362
-424 c771 -52 1557 -244 2205 -539 318 -144 608 -334 717 -469 21 -25 31 -41
23 -35 -97 75 -162 120 -241 169 -216 134 -559 283 -844 368 -137 41 -415 107
-447 107 -7 0 50 -22 127 -49 203 -70 349 -132 530 -225 302 -156 514 -303
691 -480 133 -133 167 -182 78 -114 -119 91 -261 179 -413 257 -141 71 -388
177 -396 169 -2 -2 43 -31 100 -65 196 -117 428 -296 551 -425 68 -71 164
-188 188 -229 l20 -34 -40 31 c-62 48 -212 147 -289 189 l-70 39 112 -117
c152 -157 300 -359 339 -462 8 -19 8 -19 -18 0 -122 95 -176 135 -181 135 -3
0 19 -39 50 -87 125 -199 178 -335 189 -485 4 -56 3 -98 -2 -98 -5 0 -36 60
-68 133 -187 415 -396 831 -502 994 -113 175 -322 337 -640 496 -472 236
-1071 385 -1764 438 -205 16 -743 16 -950 0 -571 -44 -1062 -149 -1490 -318
-436 -173 -756 -386 -900 -598 -97 -145 -325 -593 -505 -992 -38 -84 -73 -153
-78 -153 -4 0 -7 64 -5 143 l3 142 46 96 c25 52 73 139 107 192 33 53 58 97
54 97 -3 0 -51 -34 -106 -76 -58 -45 -96 -69 -92 -58 39 102 192 310 340 463
l111 114 -70 -38 c-77 -42 -227 -140 -289 -189 l-40 -31 20 34 c32 56 169 214
246 286 149 138 321 267 496 370 55 33 99 61 97 63 -8 8 -254 -97 -396 -169
-152 -78 -294 -166 -413 -257 -89 -68 -55 -19 78 114 278 278 718 532 1221
705 77 27 133 49 125 49 -30 0 -318 -68 -440 -105 -346 -103 -692 -261 -940
-428 l-45 -30 25 28 c107 120 496 343 846 484 898 361 1926 519 2939 450z
m-11411 -111 c58 -18 128 -90 145 -151 15 -53 9 -123 -13 -165 -15 -26 -15
-26 -16 -4 -1 61 -24 117 -69 163 -88 90 -205 92 -308 5 l-32 -27 11 33 c23
69 72 118 146 144 47 17 84 17 136 2z m22024 -17 c48 -24 95 -79 110 -127 l10
-34 -31 26 c-103 87 -221 85 -308 -5 -44 -46 -68 -100 -70 -163 0 -19 -4 -15
-20 17 -22 47 -24 101 -7 159 15 50 92 131 139 145 48 15 129 6 177 -18z
m-10656 -551 c774 -99 1458 -432 2004 -975 294 -292 488 -563 669 -930 178
-362 273 -678 332 -1096 21 -156 25 -649 5 -809 -75 -610 -289 -1165 -631
-1637 -45 -62 -85 -114 -90 -118 -5 -3 28 51 74 119 320 480 494 990 536 1571
13 182 3 478 -13 375 -82 -531 -200 -901 -410 -1285 -71 -130 -166 -285 -175
-285 -2 0 8 19 22 43 15 23 62 113 105 200 162 326 260 659 307 1041 19 158
21 524 4 676 -76 675 -328 1260 -763 1765 -470 546 -1151 930 -1858 1049 -226
39 -389 49 -635 43 -338 -9 -588 -52 -905 -157 -1025 -337 -1811 -1174 -2080
-2215 -74 -285 -100 -495 -100 -809 0 -398 64 -754 201 -1121 42 -111 151
-344 209 -445 42 -75 2 -22 -51 65 -179 296 -322 641 -408 983 -34 138 -48
210 -90 462 -7 48 -9 36 -12 -90 -7 -370 26 -649 116 -960 97 -337 267 -693
464 -968 28 -40 49 -72 46 -72 -9 0 -126 160 -198 271 -488 750 -664 1664
-492 2549 186 950 772 1786 1607 2291 477 289 1014 455 1593 493 132 8 465 -4
617 -24z m-5482 -54 c133 -18 255 -49 334 -85 l61 -28 -500 -6 c-534 -6 -712
-19 -857 -63 -24 -7 -24 27 0 49 56 51 233 108 409 132 131 17 423 18 553 1z
m10622 -1 c187 -24 362 -79 420 -132 24 -22 24 -56 1 -49 -146 44 -324 57
-858 63 l-500 6 61 28 c77 35 200 67 324 84 132 18 415 18 552 0z m-18663
-261 c-590 -328 -1147 -688 -1486 -962 -30 -25 -48 -33 -69 -30 -28 4 -27 7
66 98 371 365 835 671 1348 889 116 50 356 139 376 140 5 1 -100 -60 -235
-135z m26090 79 c578 -208 1137 -557 1561 -973 89 -88 93 -94 69 -97 -21 -3
-64 24 -215 138 -354 267 -811 557 -1344 854 -135 75 -234 134 -220 130 14 -4
81 -27 149 -52z m-16819 -189 c-8 -3 -112 -22 -230 -42 -139 -25 -206 -41
-190 -45 14 -3 106 -20 205 -37 99 -17 187 -34 195 -37 8 -3 -81 -23 -199 -44
-117 -21 -215 -40 -217 -42 -2 -2 94 -20 214 -41 119 -21 218 -39 220 -41 2
-2 -28 -8 -65 -15 -38 -6 -139 -24 -224 -39 l-154 -28 50 -10 c28 -6 123 -24
213 -39 89 -16 162 -31 162 -34 0 -4 -84 -21 -187 -39 -104 -18 -199 -35 -213
-39 -16 -4 57 -21 205 -48 l230 -41 -935 -5 c-786 -4 -953 -8 -1050 -21 -186
-26 -317 -58 -438 -106 -68 -27 -58 -11 27 44 78 50 184 98 301 136 73 24 80
28 48 28 -66 2 -264 -28 -347 -52 -44 -13 -81 -23 -81 -21 0 1 31 23 69 49 85
56 173 97 306 141 68 23 87 32 60 29 -22 -2 -76 -7 -120 -10 -83 -7 -176 -24
-260 -49 l-50 -15 35 30 c47 40 213 121 325 159 l90 30 -90 -5 c-104 -5 -228
-27 -312 -55 l-58 -19 35 29 c73 60 277 153 425 193 39 11 -152 -5 -245 -20
-52 -8 -131 -28 -175 -44 -44 -15 -81 -26 -83 -25 -1 2 17 19 42 39 126 104
357 173 651 196 100 8 1843 12 1815 5z m9595 -22 c161 -26 284 -61 378 -108
64 -33 162 -102 155 -110 -2 -1 -39 10 -83 25 -89 32 -226 57 -355 65 l-85 5
60 -18 c151 -46 319 -126 390 -185 l30 -25 -58 19 c-85 28 -208 50 -312 55
l-90 5 90 -30 c112 -38 278 -119 325 -159 l35 -30 -50 15 c-96 29 -191 45
-290 50 l-100 5 86 -30 c121 -41 209 -83 290 -136 38 -26 69 -48 69 -49 0 -2
-37 8 -81 21 -83 24 -281 54 -347 52 -32 0 -25 -4 48 -28 117 -38 223 -86 301
-136 85 -55 95 -71 27 -44 -121 48 -252 80 -438 106 -97 13 -264 17 -1050 21
l-935 5 230 42 c147 26 221 43 205 47 -14 4 -109 21 -212 39 -104 18 -188 35
-188 39 0 3 73 18 163 34 89 15 185 33 212 39 l50 10 -154 28 c-85 15 -186 33
-224 39 -37 7 -67 13 -65 15 2 2 101 20 220 41 120 21 216 39 214 41 -2 2
-100 21 -217 42 -118 21 -207 41 -199 44 8 3 98 20 200 38 102 17 191 35 198
38 7 4 -85 24 -205 45 -120 21 -220 40 -223 43 -2 2 414 3 925 0 889 -3 936
-4 1060 -25z m-6227 -755 c-2 -179 0 -246 8 -243 6 2 64 10 129 17 l117 13 29
51 c53 92 67 161 79 390 5 116 13 242 17 280 l8 70 6 -80 c4 -44 10 -220 15
-391 l7 -311 121 -6 c146 -8 155 -3 199 90 33 71 36 101 53 536 3 87 8 157 9
155 9 -9 36 -450 38 -617 l2 -194 105 -23 c57 -13 111 -22 120 -19 21 7 58 63
88 137 28 67 37 180 42 488 2 106 4 117 11 75 20 -116 40 -393 42 -574 l2
-193 109 -49 c60 -27 115 -49 121 -49 19 0 63 53 87 105 22 48 23 64 28 350 5
282 6 295 17 225 30 -177 44 -340 50 -562 l6 -238 56 -42 c31 -23 84 -66 118
-96 75 -65 105 -67 138 -12 19 33 20 51 20 272 l0 237 -60 62 -60 62 45 -30
c25 -16 51 -33 59 -38 12 -7 13 11 9 109 -3 64 -4 116 -3 116 4 0 31 -126 45
-207 11 -62 11 -63 133 -185 67 -68 147 -156 177 -196 66 -87 66 -86 51 106
-6 74 -9 137 -7 139 7 7 65 -246 79 -343 12 -79 20 -102 62 -170 112 -185 212
-391 286 -594 22 -62 38 -94 38 -79 1 33 -24 275 -49 483 -11 88 -20 167 -20
175 1 28 17 -9 56 -124 39 -117 67 -304 101 -665 25 -272 25 -974 0 -1235 -36
-371 -65 -561 -100 -660 -10 -29 -11 -45 -4 -57 12 -19 -39 -110 -148 -263
-64 -89 -226 -288 -230 -283 -2 2 8 57 21 123 29 152 70 429 86 590 14 144 1
144 132 0 50 -55 93 -99 96 -98 10 4 37 268 29 278 -4 6 -55 47 -113 90 -100
76 -106 82 -106 116 0 68 13 189 20 189 4 0 56 -29 115 -65 59 -36 111 -63
114 -59 14 13 41 694 28 694 -3 0 -23 -10 -43 -22 -58 -34 -150 -31 -235 9
l-66 30 -6 -321 c-9 -438 -47 -1174 -77 -1471 l-10 -100 -101 -98 c-56 -54
-117 -109 -135 -123 l-33 -26 -47 38 -46 38 5 61 c4 33 15 143 26 245 22 200
56 658 67 888 4 78 10 142 14 142 10 0 122 -82 186 -136 l51 -43 7 52 c3 29 6
73 6 98 l0 47 -67 40 c-38 22 -92 52 -121 66 -29 15 -55 33 -58 41 -3 8 -2 52
3 99 l8 86 119 -55 c66 -30 120 -54 121 -53 1 2 5 123 9 269 l7 266 -73 64
c-40 35 -95 85 -123 110 -53 49 -118 105 -149 129 -18 14 -18 8 -11 -200 4
-129 0 -448 -9 -795 -33 -1242 -38 -1369 -51 -1385 -7 -8 -18 -50 -24 -93 -7
-43 -18 -97 -24 -119 -10 -34 -12 -17 -8 112 l3 153 -137 131 -137 131 16 315
c8 173 21 452 27 620 6 168 13 307 15 309 1 2 56 -28 121 -67 l118 -70 3 50
c2 28 1 56 -1 62 -3 6 -59 34 -126 61 l-121 50 0 36 c0 20 3 57 6 82 l6 45
114 -39 c63 -21 119 -39 125 -39 9 0 11 91 7 362 l-6 362 -28 23 c-40 32 -208
145 -273 183 l-54 31 7 -316 c7 -284 -4 -1434 -22 -2443 -7 -355 -8 -374 -27
-388 -10 -8 -25 -27 -32 -42 -9 -20 -11 -21 -7 -4 7 27 -5 28 -54 3 -43 -22
-257 -101 -272 -101 -7 0 -9 13 -5 33 23 137 65 1069 85 1906 6 228 12 416 14
419 3 2 56 -19 118 -47 62 -28 116 -51 121 -51 4 0 7 11 7 25 0 22 -9 27 -97
54 -54 16 -110 33 -125 37 -27 6 -28 8 -28 75 0 38 2 69 4 69 9 0 213 -50 229
-56 16 -6 17 15 17 287 0 162 -3 359 -7 438 l-6 144 -76 35 c-77 36 -253 103
-257 99 -2 -1 -5 -767 -8 -1702 -3 -935 -5 -1716 -6 -1736 0 -28 -5 -38 -20
-42 -12 -3 -21 -14 -21 -29 l-2 -23 -4 23 c-3 17 -9 22 -21 17 -25 -10 -220
-52 -275 -60 l-47 -7 5 53 c16 171 42 933 56 1674 l11 610 34 57 c57 94 76
160 81 286 3 61 4 112 1 112 -2 0 -26 -29 -53 -65 -27 -36 -52 -65 -57 -65 -4
0 -8 142 -8 315 0 180 4 315 9 315 5 0 41 -34 80 -76 49 -53 84 -103 116 -166
l45 -90 0 314 0 315 -90 22 c-72 17 -241 51 -259 51 -6 0 8 -2925 15 -3323 l7
-338 -22 -6 c-17 -4 -21 -14 -23 -47 l-1 -41 -4 44 c-4 43 -5 43 -36 37 -18
-4 -97 -9 -176 -13 l-144 -6 6 154 c7 160 22 751 33 1281 l6 306 48 7 c58 8
154 52 193 88 24 24 27 33 27 97 0 38 -2 70 -4 70 -3 0 -45 -13 -94 -30 -50
-16 -108 -30 -131 -30 l-41 0 0 100 c0 55 1 100 3 100 73 11 164 33 203 49
l51 22 7 166 c4 91 5 167 2 170 -2 2 -36 -7 -74 -21 -38 -13 -97 -28 -131 -32
l-61 -7 0 502 0 502 53 -7 c60 -7 164 -32 188 -44 14 -8 17 -1 23 43 3 29 6
89 6 133 l0 81 -38 6 c-20 4 -101 10 -179 13 l-143 7 -2 -482 c-6 -1018 13
-2512 38 -3093 6 -146 6 -148 -15 -148 -17 0 -21 -6 -23 -37 l-1 -38 -4 36 -4
35 -142 13 c-78 7 -155 15 -171 18 l-29 6 6 411 c4 226 10 662 14 969 5 501 8
555 21 527 24 -50 91 -119 146 -150 84 -49 87 -46 84 66 l-3 96 -64 24 c-36
12 -90 40 -120 61 l-56 38 -3 108 -3 108 59 -41 c58 -39 110 -65 165 -81 l27
-8 -2 171 -3 171 -50 17 c-58 20 -128 54 -167 82 l-28 19 0 380 0 380 73 33
c39 19 96 39 125 47 l52 13 0 121 0 121 -89 -7 c-48 -4 -124 -13 -168 -19
l-80 -12 -6 -136 c-26 -532 16 -3021 59 -3455 5 -56 4 -58 -15 -52 -19 6 -21
2 -22 -47 l-1 -53 -11 54 -12 55 -82 17 c-45 10 -118 27 -162 39 l-81 22 0 67
c0 36 -1 515 -3 1064 l-4 997 61 73 61 72 -48 -35 c-27 -19 -51 -38 -53 -42
-19 -31 -24 9 -22 164 l3 173 30 5 30 5 6 95 c11 161 53 287 139 409 l41 58 6
218 6 217 -34 -7 c-57 -12 -201 -54 -260 -76 l-57 -21 -7 -456 c-7 -446 -5
-699 16 -1422 16 -587 57 -1422 74 -1523 4 -25 2 -27 -15 -22 -18 6 -20 1 -21
-47 l-2 -53 -9 57 -10 56 -61 22 c-34 13 -108 43 -164 67 l-102 45 -6 41 c-3
23 -9 339 -13 702 l-8 660 24 40 c14 22 70 100 124 173 l99 133 -3 69 -3 68
-120 -100 -120 -100 -8 288 c-6 227 -5 289 5 295 7 5 63 20 124 35 l112 28 6
395 c3 218 8 424 9 457 3 61 3 62 -21 53 -38 -15 -202 -98 -268 -136 l-61 -35
-6 -362 c-13 -684 39 -1923 110 -2625 5 -57 4 -64 -10 -58 -14 5 -17 -2 -18
-46 l-2 -52 -11 60 c-11 58 -13 60 -68 91 -82 46 -245 153 -258 170 -14 16
-27 185 -31 399 l-3 150 73 120 c40 65 96 155 124 199 l51 79 -3 91 c-2 50 -6
128 -9 174 l-7 83 -118 -112 c-65 -61 -120 -109 -123 -106 -6 6 -26 674 -22
746 l3 54 118 46 118 46 5 399 c5 328 3 397 -8 390 -33 -19 -122 -85 -224
-166 l-112 -89 -4 -147 c-12 -350 32 -1272 87 -1842 17 -174 53 -454 61 -485
5 -16 4 -18 -7 -7 -22 20 -29 14 -30 -25 -1 -37 -2 -37 -14 15 -9 37 -22 59
-41 75 -16 12 -48 39 -71 61 l-43 39 50 92 c27 50 48 94 46 96 -2 2 -16 126
-31 274 -15 149 -28 271 -29 272 -1 2 -57 -55 -123 -126 l-121 -128 -6 76
c-12 143 -36 636 -38 785 l-3 150 118 59 117 59 0 315 0 315 -61 -54 c-116
-101 -192 -159 -242 -184 l-50 -26 7 -211 c7 -225 26 -516 51 -762 18 -176 55
-477 61 -486 2 -3 6 -53 9 -110 4 -57 10 -149 15 -204 5 -55 7 -101 6 -103 -5
-4 -45 148 -59 219 -10 54 -12 58 -27 44 -15 -14 -22 -8 -74 66 -32 44 -87
128 -121 185 -54 90 -65 118 -79 192 -24 127 -69 442 -65 446 2 2 54 35 114
74 101 64 110 72 107 98 -7 78 -22 389 -22 459 l0 80 -50 18 c-129 46 -195
186 -194 407 1 247 88 536 263 875 86 166 88 173 110 300 26 150 79 383 93
405 6 10 7 4 4 -20 -3 -19 -10 -111 -16 -204 -6 -94 -14 -175 -17 -180 -12
-22 14 10 53 64 51 72 149 186 239 280 l73 75 21 130 c33 200 42 213 36 51
l-6 -139 48 39 c45 37 46 37 26 9 -11 -16 -33 -41 -47 -54 -20 -19 -26 -34
-26 -65 0 -23 -9 -138 -19 -256 -11 -118 -22 -253 -26 -300 l-6 -85 104 106
c94 94 110 116 155 210 97 200 118 272 136 474 17 185 53 456 62 464 9 10 1
-465 -12 -644 -7 -99 -13 -194 -13 -212 l-1 -32 48 29 c26 16 83 48 127 72
l80 43 43 87 c54 108 64 165 92 493 12 138 25 268 30 290 6 25 8 -121 7 -382
-2 -233 -2 -423 -2 -423 27 12 187 61 211 66 43 8 83 58 114 142 23 60 23 60
45 402 9 124 19 248 23 275 11 79 23 -236 20 -528z m-13988 -377 c37 -72 17
-184 -43 -248 -32 -35 -91 -62 -134 -62 -68 0 -68 13 -4 63 74 57 115 126 132
219 7 37 16 68 20 68 5 0 18 -18 29 -40z m28909 -28 c17 -93 58 -162 132 -219
64 -50 64 -63 -4 -63 -43 0 -102 27 -134 62 -34 37 -63 109 -63 161 0 46 31
127 49 127 4 0 13 -31 20 -68z m-19631 -68 l52 -7 0 -2485 0 -2484 -31 6 c-17
3 -56 6 -85 6 l-54 0 0 2478 c0 1363 3 2482 7 2485 8 9 43 9 111 1z m10710 -9
c9 -4 12 -509 12 -2486 l0 -2482 -61 7 c-34 3 -73 6 -85 6 l-24 0 0 2486 0
2485 73 -6 c39 -4 78 -8 85 -10z m-11088 -2480 l0 -2485 -37 0 c-35 0 -192
-20 -290 -36 l-43 -7 0 2466 0 2466 63 19 c70 22 235 56 290 61 16 1 17 -123
17 -2484z m3019 2393 c-78 -120 -206 -381 -259 -528 -106 -291 -160 -588 -165
-900 -2 -113 -1 -187 1 -165 46 425 141 769 300 1090 52 106 51 95 -5 -31
-155 -353 -244 -839 -226 -1224 36 -737 312 -1384 809 -1897 452 -466 1011
-755 1657 -854 194 -30 609 -33 794 -6 353 53 683 158 965 309 1100 587 1699
1792 1500 3018 -35 212 -117 495 -191 659 -16 35 -27 66 -25 68 5 6 100 -209
147 -332 71 -189 141 -496 169 -741 7 -61 8 -32 5 126 -5 297 -42 509 -141
809 -50 152 -156 388 -244 541 -17 30 -22 44 -11 30 11 -14 49 -77 85 -140
371 -656 484 -1426 316 -2160 -171 -753 -633 -1421 -1280 -1852 -820 -546
-1859 -659 -2770 -301 -1219 479 -1996 1678 -1929 2978 23 445 126 828 333
1230 73 143 207 365 220 365 3 0 -22 -42 -55 -92z m7641 -2392 l0 -2483 -107
-7 c-60 -4 -143 -13 -186 -20 l-77 -12 2 2469 3 2470 45 14 c56 17 244 51 288
52 l32 1 0 -2484z m-9588 154 c3 -1402 -8 -2524 -23 -2483 -18 48 -30 2253
-19 3400 5 615 13 1132 17 1148 14 57 23 -682 25 -2065z m8958 920 c11 -1159
-1 -3355 -19 -3403 -14 -36 -25 1000 -25 2268 0 1271 11 2324 25 2288 4 -12
13 -531 19 -1153z m-6954 892 c-8 -60 -28 -163 -45 -228 -139 -559 -158 -1140
-55 -1704 26 -143 79 -355 113 -454 25 -70 26 -80 5 -46 -14 24 -15 22 -10
-35 l5 -60 -21 45 c-33 70 -96 263 -128 390 -79 315 -104 530 -104 890 0 367
32 621 121 945 34 126 123 378 131 371 2 -2 -3 -53 -12 -114z m-1241 -29 c-16
-42 -95 -368 -114 -473 -125 -692 -77 -1354 146 -2004 79 -231 197 -494 304
-678 22 -36 39 -70 39 -74 0 -5 -27 29 -61 75 -552 751 -736 1786 -483 2706
44 160 157 465 172 465 2 0 1 -8 -3 -17z m7493 -130 c61 -156 94 -257 126
-388 215 -867 56 -1802 -430 -2530 -125 -187 -147 -211 -79 -85 275 512 430
1005 487 1550 19 180 16 619 -5 800 -28 240 -86 527 -153 758 -3 12 -4 22 -1
22 3 0 28 -57 55 -127z m-1209 -1902 l24 -19 -26 -75 c-15 -42 -36 -97 -48
-123 -17 -41 -22 -45 -34 -33 -12 12 -10 29 11 119 13 58 24 115 24 128 0 27
17 28 49 3z m-1286 -1426 c25 -66 43 -123 40 -128 -4 -6 -117 -67 -125 -67 -3
0 27 306 31 319 3 10 12 -12 54 -124z m1417 102 c0 -2 -10 -12 -22 -23 l-23
-19 19 23 c18 21 26 27 26 19z m-5379 -24 c13 -16 12 -17 -3 -4 -17 13 -22 21
-14 21 2 0 10 -8 17 -17z m5339 -27 c0 -2 -8 -10 -17 -17 -16 -13 -17 -12 -4
4 13 16 21 21 21 13z m-7625 -1276 c120 -16 265 -47 358 -76 82 -26 232 -92
225 -99 -2 -3 -28 2 -58 10 -91 24 -247 44 -395 50 l-140 5 80 -25 c224 -71
379 -142 483 -220 35 -26 61 -49 59 -52 -3 -2 -40 5 -83 17 -111 29 -287 50
-412 50 l-107 -1 146 -48 c205 -69 372 -154 437 -224 l23 -25 -64 18 c-115 32
-249 50 -407 56 l-155 5 84 -26 c173 -53 350 -127 406 -168 18 -14 12 -14 -50
-1 -461 98 -1124 97 -1597 -1 -62 -12 -115 -21 -117 -20 -6 7 112 77 188 112
42 20 141 57 221 84 l145 48 -56 0 c-144 2 -435 -35 -514 -65 -39 -15 5 24 79
70 103 65 281 136 471 190 11 3 -52 3 -140 1 -155 -4 -257 -17 -381 -49 l-59
-15 30 25 c80 67 238 143 408 198 56 18 118 38 137 44 28 9 8 10 -105 6 -159
-6 -310 -26 -411 -53 -38 -11 -70 -18 -72 -16 -6 6 85 56 156 85 122 52 335
99 542 120 108 11 540 4 645 -10z m10520 10 c288 -27 523 -88 671 -175 25 -15
44 -28 42 -30 -2 -2 -34 5 -72 16 -38 10 -115 25 -170 33 -102 15 -385 33
-376 24 3 -3 53 -19 111 -36 179 -52 379 -146 464 -216 l30 -25 -59 15 c-124
32 -226 45 -381 49 -88 2 -151 2 -140 -1 190 -54 368 -125 471 -190 74 -46
118 -85 79 -70 -79 30 -370 67 -514 65 l-56 0 145 -48 c80 -27 179 -64 221
-84 76 -35 194 -105 188 -112 -2 -1 -55 8 -117 20 -473 98 -1136 99 -1597 1
-62 -13 -68 -13 -50 1 56 41 233 115 406 168 l84 26 -155 -5 c-158 -6 -292
-24 -407 -56 l-64 -18 23 25 c65 70 232 155 437 224 l146 48 -107 1 c-125 0
-301 -21 -412 -50 -43 -12 -80 -19 -83 -17 -2 3 24 26 59 52 105 79 269 153
483 219 l80 24 -56 1 c-138 2 -433 -34 -526 -65 -50 -17 53 40 120 67 148 57
343 99 542 118 131 12 413 13 540 1z m-8000 -202 c22 -114 30 -131 39 -87 3
19 13 67 22 107 l16 72 47 0 48 0 23 -127 c12 -71 26 -137 30 -147 4 -13 17
31 35 127 l29 147 36 0 37 0 32 -182 c18 -101 34 -184 36 -186 2 -3 16 67 51
271 17 95 18 97 45 97 32 0 27 17 71 -248 23 -147 35 -196 40 -175 3 15 21
117 39 226 30 186 34 198 53 195 19 -3 24 -23 62 -268 23 -146 42 -262 43
-259 10 65 81 522 81 525 0 2 6 4 14 4 10 0 17 -15 21 -42 4 -24 23 -160 44
-303 23 -160 40 -250 44 -235 4 14 23 140 42 280 40 286 42 300 53 300 5 0 28
-151 53 -335 24 -184 46 -331 50 -327 3 4 25 153 49 332 23 179 44 327 46 329
6 7 14 -46 55 -384 22 -187 43 -347 46 -355 3 -8 27 149 53 350 26 201 49 358
53 350 3 -8 24 -179 47 -380 23 -201 45 -376 48 -388 5 -15 25 125 52 357 25
210 47 381 50 381 5 0 91 -745 90 -782 0 -17 -86 -18 -1659 -18 -1356 0 -1661
2 -1669 13 -9 11 88 22 528 62 296 27 537 51 535 54 -4 3 -1015 99 -1075 102
-59 2 23 11 500 54 278 25 523 48 545 53 29 5 -113 21 -505 57 -353 32 -534
52 -515 57 17 4 262 28 545 54 445 40 578 54 506 54 -29 0 -998 90 -1046 97
-32 4 116 21 505 58 394 37 537 54 505 58 -25 4 -243 25 -485 47 -242 22 -451
42 -465 44 -14 1 297 4 691 5 l715 1 19 -92z m3600 -252 c24 -180 45 -329 47
-332 2 -2 24 148 48 333 25 185 50 338 55 340 7 2 24 -90 44 -234 18 -131 38
-269 44 -308 l11 -70 32 225 c18 124 38 262 44 308 9 57 16 82 26 82 17 0 16
5 60 -285 20 -132 37 -241 38 -242 1 -2 19 109 40 245 44 288 42 282 66 282
20 0 17 12 65 -283 16 -92 30 -166 31 -164 3 3 74 430 74 443 0 2 13 4 29 4
32 0 26 20 78 -273 10 -60 19 -92 23 -80 4 10 20 93 36 186 l29 167 36 0 37 0
28 -145 c15 -79 30 -142 32 -140 3 2 17 66 31 142 l26 138 47 3 c53 3 47 12
74 -115 10 -46 20 -80 23 -77 3 3 15 47 27 97 l20 92 700 1 c384 1 688 -1 674
-2 -14 -2 -223 -22 -465 -44 -242 -22 -460 -43 -485 -47 -32 -4 111 -21 505
-58 389 -37 537 -54 505 -58 -48 -7 -1017 -97 -1046 -97 -72 0 61 -14 506 -54
283 -26 528 -50 545 -54 19 -5 -162 -25 -515 -57 -392 -36 -534 -52 -505 -57
22 -5 267 -28 545 -53 477 -43 559 -52 500 -54 -60 -3 -1071 -99 -1075 -102
-2 -3 239 -27 535 -54 440 -40 537 -51 528 -62 -15 -19 -3298 -19 -3298 0 0
37 83 765 89 781 4 11 26 -145 51 -363 25 -209 47 -381 50 -381 3 0 25 168 49
373 23 204 46 385 50 401 5 20 21 -83 50 -320 23 -192 45 -357 49 -367 4 -10
27 141 51 335 43 358 51 412 58 392 2 -6 23 -158 48 -338z m-1620 -121 c19
-187 37 -355 40 -372 l6 -33 -91 0 -92 0 6 38 c3 20 22 183 41 362 36 327 47
404 52 365 1 -11 18 -173 38 -360z m1054 -387 c1 -16 -10 -18 -87 -18 l-88 0
42 383 c23 210 42 384 44 387 2 5 88 -719 89 -752z m-820 5 c1 -22 -2 -23 -79
-23 -44 0 -80 1 -80 3 0 5 80 752 81 757 2 7 77 -708 78 -737z m570 387 c18
-173 35 -336 38 -362 l6 -48 -83 0 -83 0 6 38 c3 20 20 186 39 369 18 183 35
329 39 325 3 -4 20 -149 38 -322z m-405 -75 l31 -330 -68 -3 c-38 -2 -71 -1
-74 2 -4 4 50 568 65 671 8 61 5 85 46 -340z m201 48 c19 -180 35 -340 35
-355 0 -28 0 -28 -70 -28 -49 0 -70 4 -70 13 -1 27 65 706 68 703 2 -2 19
-152 37 -333z m-4995 -367 c324 -43 559 -105 743 -198 72 -36 167 -109 167
-129 0 -4 -32 5 -71 22 -208 85 -481 132 -829 143 -129 4 -155 3 -120 -5 25
-6 115 -27 200 -46 341 -77 628 -199 755 -320 25 -25 44 -47 42 -49 -2 -2 -30
7 -63 22 -79 35 -294 88 -434 108 -118 17 -402 36 -500 35 -48 -1 -35 -5 100
-34 406 -85 712 -209 849 -342 64 -62 65 -63 26 -45 -106 51 -301 102 -485
127 -112 15 -410 35 -500 34 -45 -1 -44 -1 20 -15 365 -77 528 -128 726 -224
116 -57 154 -81 210 -135 65 -62 67 -65 29 -47 -103 50 -328 107 -522 132 -65
9 -376 28 -467 30 -43 0 -1 -12 130 -39 380 -78 693 -206 833 -338 63 -61 64
-63 26 -45 -179 86 -555 153 -854 151 l-136 0 115 -24 c414 -87 736 -221 874
-363 l38 -40 -83 33 c-198 79 -454 124 -749 130 l-195 5 112 -24 c430 -93 739
-222 877 -365 l40 -41 -72 31 c-187 78 -468 128 -767 135 l-200 4 140 -29
c245 -52 476 -127 630 -204 72 -36 185 -108 203 -129 15 -18 16 -18 -178 23
-74 16 -198 40 -275 54 -245 45 -899 197 -1160 269 -49 14 -184 51 -300 82
-115 31 -216 60 -223 64 -18 9 159 61 343 100 l140 30 -200 -4 c-201 -5 -267
-12 -427 -42 -82 -15 -91 -15 -153 1 -36 10 -65 21 -65 25 0 14 183 97 301
138 153 53 247 79 409 114 l135 28 -200 -4 c-293 -7 -548 -51 -744 -128 -40
-16 -75 -27 -78 -25 -2 3 19 25 47 49 154 135 465 262 817 333 183 37 189 45
33 39 -351 -13 -621 -57 -817 -135 -41 -16 -77 -28 -80 -26 -7 8 91 88 164
134 176 109 414 189 828 277 l70 15 -155 -5 c-381 -12 -654 -61 -895 -159 -17
-7 -17 -4 5 19 75 82 249 181 445 251 115 42 358 106 490 131 50 9 92 18 95
21 9 9 -319 -8 -460 -23 -216 -24 -348 -56 -575 -138 -11 -4 4 15 34 44 140
134 448 259 847 344 146 32 154 34 99 35 -100 1 -373 -18 -495 -35 -148 -21
-315 -63 -426 -108 -49 -19 -90 -33 -92 -31 -2 2 15 22 38 44 145 140 537 257
1010 301 151 14 665 5 810 -14z m10590 4 c432 -54 775 -162 904 -286 26 -25
46 -47 44 -49 -2 -2 -43 12 -92 31 -184 75 -405 116 -716 134 -275 17 -297 11
-105 -27 383 -78 705 -208 846 -343 30 -29 45 -48 34 -44 -227 82 -359 114
-575 138 -141 15 -469 32 -460 23 3 -3 46 -12 95 -21 413 -76 801 -234 935
-382 22 -23 22 -26 5 -19 -241 98 -514 147 -895 159 l-155 5 70 -15 c414 -88
652 -168 828 -277 73 -46 171 -126 164 -134 -3 -2 -39 10 -80 26 -143 57 -352
101 -567 120 -166 15 -388 22 -370 12 8 -4 66 -18 129 -30 262 -52 558 -154
712 -248 77 -46 184 -131 176 -140 -3 -2 -38 9 -78 25 -196 77 -451 121 -744
128 l-200 4 135 -28 c162 -35 256 -61 409 -114 118 -41 301 -124 301 -138 0
-4 -29 -15 -65 -25 -62 -16 -71 -16 -153 -1 -160 30 -226 37 -427 42 l-200 4
135 -29 c74 -16 183 -43 243 -60 59 -17 111 -31 115 -31 25 -1 -49 -25 -233
-74 -115 -31 -250 -68 -300 -82 -261 -72 -915 -224 -1160 -269 -77 -14 -201
-38 -275 -54 -194 -41 -193 -41 -178 -23 18 21 131 93 203 129 154 77 385 152
630 204 l140 29 -200 -4 c-299 -7 -580 -57 -767 -135 l-72 -31 40 41 c138 144
445 271 877 365 l112 24 -195 -5 c-295 -6 -551 -51 -749 -130 l-83 -33 38 40
c138 142 460 276 874 363 l115 24 -136 0 c-299 2 -675 -65 -854 -151 -38 -18
-37 -16 26 45 140 132 453 260 833 338 126 26 173 39 135 39 -99 -1 -419 -23
-500 -34 -196 -28 -390 -78 -494 -128 -38 -18 -36 -15 29 47 56 54 94 78 210
135 198 96 361 147 726 224 64 14 65 14 20 15 -90 1 -388 -19 -500 -34 -184
-25 -379 -76 -485 -127 -39 -18 -38 -17 26 45 137 133 445 257 846 342 183 39
167 42 -122 25 -285 -17 -545 -66 -698 -130 -39 -16 -72 -28 -75 -26 -2 2 18
24 43 49 127 121 414 243 755 320 85 19 175 40 200 46 35 8 9 9 -120 5 -348
-11 -621 -58 -829 -143 -39 -17 -71 -26 -71 -22 0 20 95 93 167 129 193 98
478 170 788 201 61 6 126 13 145 15 68 8 636 -3 720 -14z m-4105 -431 c784
-14 1668 -44 1715 -58 25 -8 -19 -10 -555 -31 -1582 -62 -4066 -62 -5680 0
-514 20 -578 23 -559 30 10 4 96 10 189 14 94 4 278 11 410 16 1155 45 2948
57 4480 29z m-12194 -13 c24 -7 222 -101 439 -209 993 -491 1872 -854 2900
-1197 3469 -1159 7143 -1466 10740 -899 2317 366 4525 1072 6640 2125 190 94
363 177 385 183 22 6 77 11 123 11 140 0 256 -51 349 -154 34 -38 376 -622
1173 -2006 619 -1074 1136 -1981 1148 -2014 68 -176 20 -381 -121 -513 -52
-48 -108 -82 -327 -195 -2643 -1369 -5613 -2334 -8600 -2797 -1459 -226 -2823
-331 -4300 -331 -1477 0 -2841 105 -4300 331 -2981 462 -5935 1421 -8580 2787
-239 123 -295 156 -347 205 -141 132 -189 336 -121 513 36 94 2265 3958 2317
4016 94 106 210 157 352 158 47 0 106 -6 130 -14z"/>
<path d="M23267 33490 c-61 -8 -182 -41 -216 -59 -7 -5 28 -11 79 -15 289 -22
422 -81 777 -343 219 -163 271 -197 394 -258 97 -49 261 -108 286 -103 9 2
-41 47 -119 109 -73 58 -198 164 -278 235 -234 208 -342 287 -483 355 -141 67
-299 95 -440 79z"/>
<path d="M26622 33489 c-217 -26 -392 -129 -764 -455 -101 -88 -230 -196 -286
-240 -56 -43 -97 -81 -92 -82 20 -7 183 49 275 93 108 52 204 115 428 282 331
246 473 308 757 329 87 7 91 8 66 21 -80 42 -262 67 -384 52z"/>
<path d="M23054 33070 c-146 -20 -280 -87 -390 -195 -79 -78 -118 -147 -156
-280 -20 -71 -23 -101 -22 -260 0 -153 3 -192 22 -258 28 -102 76 -199 122
-245 100 -102 325 -190 584 -228 167 -25 488 -15 651 20 66 14 136 30 155 35
l35 10 -40 -35 c-65 -58 -194 -140 -306 -194 -109 -54 -99 -56 46 -15 249 72
460 203 630 391 128 141 158 202 163 331 9 204 -85 359 -283 468 -33 18 -159
75 -280 126 -121 51 -312 139 -424 196 -112 57 -229 110 -260 117 -77 19 -174
26 -247 16z m1291 -1043 c-47 -143 -206 -271 -405 -326 -216 -60 -553 -50
-873 26 -60 14 -107 27 -104 29 2 2 80 -1 173 -7 229 -15 654 -6 753 16 157
35 272 91 361 176 47 45 99 130 101 166 1 12 3 10 6 -5 3 -13 -3 -47 -12 -75z"/>
<path d="M26845 33070 c-87 -12 -137 -31 -307 -120 -166 -86 -298 -146 -538
-247 -175 -73 -253 -117 -324 -183 -95 -89 -142 -184 -153 -315 -7 -84 7 -155
45 -233 37 -77 237 -278 353 -355 152 -101 358 -189 519 -222 21 -4 -15 18
-85 53 -112 56 -251 145 -303 196 l-23 22 91 -23 c169 -42 306 -55 525 -50
289 6 475 48 669 150 135 71 192 145 242 312 21 73 27 117 31 233 11 299 -61
502 -224 631 -146 116 -345 174 -518 151z m564 -1004 c-28 -152 -174 -289
-379 -354 -117 -38 -197 -47 -400 -46 -202 0 -340 15 -530 56 -135 29 -143 39
-25 30 55 -4 253 -7 440 -7 368 0 428 6 575 61 150 57 274 168 310 277 16 51
20 43 9 -17z"/>
<path d="M24855 32572 c3 -15 6 -86 7 -157 2 -129 -1 -144 -48 -312 -5 -18 -3
-21 15 -16 11 3 40 23 64 44 120 105 124 314 9 432 -43 44 -56 47 -47 9z"/>
<path d="M25178 32566 c-59 -57 -82 -118 -82 -216 -1 -96 21 -155 76 -211 30
-29 86 -64 94 -57 2 2 -9 44 -23 93 -24 83 -26 104 -25 258 1 92 0 167 -2 167
-2 0 -19 -15 -38 -34z"/>
<path d="M24874 31932 c-48 -32 -179 -371 -291 -752 -64 -221 -62 -309 10
-417 36 -55 111 -109 164 -119 90 -17 138 28 191 177 45 126 53 140 76 137 14
-2 31 -29 62 -102 55 -127 84 -169 130 -191 34 -16 46 -17 93 -7 71 15 119 54
154 123 60 119 58 255 -8 473 -82 270 -232 623 -285 671 -19 17 -22 17 -37 3
-9 -9 -28 -45 -42 -79 -46 -109 -91 -110 -131 -1 -30 80 -55 105 -86 84z m165
-440 c5 -26 13 -94 17 -150 5 -74 13 -114 27 -140 70 -129 77 -146 76 -191
l-1 -46 -11 34 c-6 19 -38 63 -71 99 l-60 64 -34 -38 c-18 -22 -48 -68 -67
-104 l-34 -65 0 55 c-1 58 26 130 70 189 17 23 24 51 30 125 9 113 28 216 39
216 5 0 13 -21 19 -48z"/>
<path d="M24522 31493 c-71 -112 -128 -229 -170 -351 -32 -94 -36 -119 -37
-207 0 -118 17 -165 87 -241 39 -43 124 -94 156 -94 7 0 -10 24 -39 52 -28 29
-63 75 -78 103 -24 46 -26 60 -25 160 0 104 3 120 53 280 76 245 113 375 106
375 -2 0 -25 -35 -53 -77z"/>
<path d="M25460 31564 c0 -3 24 -72 54 -153 95 -260 110 -321 111 -451 0 -112
-1 -117 -36 -191 -20 -42 -57 -97 -81 -123 -48 -49 -41 -58 22 -26 122 62 200
199 200 350 0 119 -61 300 -147 438 -43 70 -123 171 -123 156z"/>
<path d="M22238 31084 c155 -226 355 -376 542 -405 134 -21 580 9 613 40 11
11 -98 27 -373 56 -129 13 -253 30 -275 36 -74 21 -179 81 -350 198 -93 65
-176 121 -184 126 -7 4 5 -19 27 -51z"/>
<path d="M27730 31062 c-192 -169 -332 -260 -455 -294 -75 -21 -101 -22 -397
-23 l-317 0 47 -19 c67 -26 254 -72 345 -85 110 -15 271 -13 345 4 147 35 296
145 419 310 42 56 108 174 101 180 -2 1 -41 -31 -88 -73z"/>
<path d="M16335 25113 c-65 -7 -153 -25 -195 -39 -114 -39 -198 -52 -384 -60
l-169 -7 -117 -101 c-65 -56 -117 -102 -117 -103 1 -1 83 23 182 53 353 108
773 206 1085 253 l125 19 -145 0 c-80 0 -199 -7 -265 -15z"/>
<path d="M10889 20693 c-13 -16 -12 -17 4 -4 9 7 17 15 17 17 0 8 -8 3 -21
-13z"/>
<path d="M17080 23424 c-439 -52 -827 -149 -1430 -356 l-155 -53 -3 -55 c-7
-154 -55 -377 -98 -462 -8 -16 -13 -28 -11 -28 3 0 24 11 49 25 103 58 245 69
356 27 45 -17 50 -17 122 0 341 82 856 138 1264 138 288 0 660 -27 970 -72
113 -16 154 -18 167 -10 14 9 17 9 13 -2 -4 -10 19 -18 93 -30 139 -25 475
-100 628 -141 71 -19 130 -33 132 -32 1 2 -41 38 -93 81 -53 43 -202 170 -332
283 -295 257 -388 332 -528 425 -184 123 -350 195 -556 240 -75 16 -137 21
-323 23 -126 2 -246 1 -265 -1z"/>
<path d="M32465 23423 c-256 -33 -469 -114 -689 -261 -139 -93 -233 -168 -527
-424 -129 -111 -269 -232 -312 -267 -42 -35 -76 -66 -73 -68 2 -2 58 10 125
27 1049 265 2087 300 2993 101 l123 -27 50 20 c38 15 73 20 145 19 110 0 179
-21 253 -78 25 -19 50 -35 56 -35 20 0 21 20 3 57 -51 100 -102 334 -102 467
0 67 32 49 -275 153 -509 171 -897 267 -1250 308 -118 14 -439 19 -520 8z"/>
<path d="M26613 19679 c4 -13 12 -168 17 -344 11 -314 12 -321 36 -357 26 -41
23 -49 -9 -20 -20 17 -20 16 -13 -107 3 -68 6 -179 6 -245 l1 -121 107 -87
c75 -62 115 -88 134 -88 35 0 72 45 93 113 15 47 15 83 3 393 l-14 341 -64
114 c-71 128 -136 228 -222 341 -66 87 -85 104 -75 67z"/>
<path d="M23222 19573 c-122 -166 -270 -419 -320 -548 -28 -71 -65 -455 -87
-910 l-7 -130 29 25 c170 150 294 305 326 407 9 29 20 128 27 248 6 110 13
223 15 250 13 159 39 431 54 565 10 85 17 156 16 158 -2 2 -25 -28 -53 -65z"/>
<path d="M24971 19511 c-4 -3 -10 -110 -13 -237 l-4 -232 115 -7 116 -7 32 37
c52 60 103 247 103 375 l0 58 -82 6 c-143 10 -257 13 -267 7z"/>
<path d="M24658 19496 c-53 -6 -100 -15 -105 -19 -7 -8 -23 -466 -17 -476 2
-1 51 3 111 10 97 11 111 15 139 41 70 66 104 181 104 355 l0 103 -67 -1 c-38
-1 -112 -6 -165 -13z"/>
<path d="M25390 19342 c0 -82 -3 -189 -6 -238 l-7 -89 124 -22 124 -23 28 33
c45 52 69 144 75 289 l4 126 -38 11 c-38 11 -190 42 -266 56 l-38 6 0 -149z"/>
<path d="M24348 19445 c-60 -13 -132 -31 -162 -39 l-54 -16 -6 -102 c-3 -57
-8 -169 -11 -249 l-6 -147 117 34 c144 41 160 53 211 149 24 46 26 61 31 222
3 99 1 173 -4 172 -5 0 -57 -11 -116 -24z"/>
<path d="M25800 19162 l0 -237 115 -39 c140 -47 150 -45 198 53 31 64 32 69
32 200 l0 135 -78 33 c-69 29 -250 93 -263 93 -2 0 -4 -107 -4 -238z"/>
<path d="M23925 19321 c-55 -21 -125 -50 -156 -64 l-56 -25 -6 -63 c-12 -124
-20 -459 -11 -459 5 1 58 26 119 58 122 63 141 84 188 202 31 78 45 162 50
293 2 82 1 97 -13 97 -8 -1 -60 -18 -115 -39z"/>
<path d="M26220 19107 c0 -73 3 -182 6 -243 l7 -111 61 -33 c34 -18 92 -53
129 -77 75 -48 87 -51 109 -25 31 33 39 94 36 252 l-3 155 -97 65 c-54 36
-131 84 -173 107 l-75 42 0 -132z"/>
<path d="M23510 19124 c-63 -37 -141 -84 -172 -106 -52 -35 -58 -42 -58 -74 0
-34 -14 -295 -25 -463 l-5 -83 47 39 c27 22 83 66 127 98 68 50 82 66 106 119
55 120 90 268 97 408 3 70 4 128 2 128 -3 0 -56 -30 -119 -66z"/>
<path d="M27055 18915 c2 -33 9 -177 15 -320 6 -143 13 -315 16 -382 l6 -123
60 -52 c33 -29 63 -54 67 -56 16 -6 42 38 53 91 16 74 1 193 -48 386 -35 143
-117 391 -154 473 l-20 43 5 -60z"/>
<path d="M22746 18572 c-36 -152 -56 -292 -55 -397 0 -104 12 -182 21 -150 14
44 28 171 43 380 9 121 18 232 21 248 3 15 3 27 1 27 -3 0 -17 -49 -31 -108z"/>
<path d="M24434 17750 c0 -52 1 -74 3 -47 2 26 2 68 0 95 -2 26 -3 4 -3 -48z"/>
<path d="M26069 16116 l76 -204 3 131 3 131 -73 73 c-40 40 -75 73 -79 73 -4
0 28 -92 70 -204z"/>
<path d="M14281 12502 c-30 -15 -160 -236 -1157 -1967 -1203 -2088 -1150
-1989 -1104 -2048 32 -41 926 -486 1505 -749 3122 -1420 6557 -2258 10005
-2443 919 -49 2017 -49 2935 0 3450 184 6886 1022 10010 2443 589 267 1473
708 1506 750 15 20 20 38 17 67 -3 31 -238 448 -1107 1955 -607 1053 -1114
1932 -1127 1952 -16 25 -36 41 -61 48 -38 12 -44 9 -418 -177 -545 -271 -943
-451 -1470 -668 -2324 -957 -4819 -1537 -7315 -1700 -565 -37 -694 -40 -1500
-40 -806 0 -935 3 -1500 40 -2496 163 -4991 743 -7315 1700 -527 217 -925 397
-1468 667 -208 104 -384 188 -390 188 -7 0 -27 -8 -46 -18z"/>
</g>
</svg>
